<svg display="block" height="692" preserveAspectRatio="none" viewBox="0 0 2048 1012" width="1400" xmlns="http://www.w3.org/2000/svg"><path d="m1582.08 564.288c51.12-3.392 105.43-12.318 156.78-15.999.89 17.195 3.41 35.084 5.04 52.289 3.6 37.908 8.67 76.337 11.77 114.246-103.62 9.614-209.41 21.848-313.09 32.782l-570.62 59.976-374.281 39.311-120.698 12.686c-21.571 2.257-46.468 4.272-67.613 7.321-4.254-50.832-10.896-101.646-15.704-152.44-.449-4.748-.833-9.626-.942-14.394l1221.398-128.458c6.13-1.053 21.74-.546 29.36-1.15 14.09-1.117 24.87-3.455 38.6-6.17z" fill="#feea00"/><path d="m504.527 145.39c5.097-.625 15.537-.646 20.893-.677 56.277.009 110.232 22.437 149.931 62.326-17.201 17.701-35.41 35.482-52.892 52.992-12.183-12.845-30.819-24.585-47.202-31.082-34.45-13.605-72.901-12.918-106.843 1.909-33.662 14.87-60.101 42.416-73.576 76.66-13.3 34.346-12.404 72.571 2.49 106.256 14.917 33.777 42.649 60.238 77.088 73.554 80.362 31.01 141.42-18.702 169.856-92.32l-101.892-.088.045-74.609c56.798-1.496 119.779-.133 177.075-.135l55.072.09c.87 78.76 1.069 163.634-.124 242.309-22.054.723-52.396.56-74.477-.14l.027-111.126c-7.731 14.458-16.673 28.234-26.731 41.18-40.851 51.828-99.305 84.098-166.108 78.079-42.816-3.857-81.438-18.969-115.171-45.66-44.496-34.916-73.178-86.178-79.656-142.366-6.712-56.837 9.669-113.99 45.471-158.642 37.457-46.614 87.826-72.032 146.724-78.51z"/><path d="m1514.12 571.608c-3.56-1.802-17.8-3.413-23.11-4.819-9.21-2.438-16.76-4.748-25.61-8.494-41.22-17.415-73.82-50.517-90.6-92-16.36-41.228-15.81-87.241 1.52-128.067 17.42-40.804 50.42-72.956 91.66-89.307 41.68-16.408 88.16-15.617 129.25 2.2 40.34 17.581 72.03 50.467 88.11 91.42 16.27 41.594 15.39 87.943-2.44 128.892-20.55 46.875-54.53 73.695-100.96 91.898l.14.957c-13.73 2.715-24.51 5.053-38.6 6.17-7.62.604-23.23.097-29.36 1.15zm25.38-75.564c50.71-5.313 87.53-50.708 82.26-101.423s-50.64-87.571-101.36-82.344c-50.78 5.233-87.68 50.663-82.41 101.439 5.28 50.776 50.74 87.647 101.51 82.328z"/><path d="m983.163 237.311c92.057-5.52 171.177 64.583 176.797 156.635 5.61 92.052-64.42 171.245-156.46 176.947-92.18 5.71-171.508-64.434-177.127-156.615s64.604-171.44 156.79-176.967zm19.337 258.758c50.73-5.193 87.66-50.511 82.5-101.246-5.16-50.734-50.46-87.689-101.195-82.56-50.782 5.134-87.777 50.478-82.612 101.257s50.533 87.745 101.307 82.549z"/><path d="m1094.76 153.729c39.06-1.044 82.6-.165 122-.168l211.6.126c.46 24.213.25 50.237-.06 74.46l-129.55.126c-.77 67.536-.03 136.566-.03 204.227l-.08 130.076c-22.73.68-51.38.483-74.18-.032-.78-37.275-.08-76.983-.08-114.554l.04-219.74c-42.98-.491-86.71-.022-129.78-.153-.14-24.789-.1-49.579.12-74.368z"/></svg>