<?xml version="1.0" encoding="UTF-8" standalone="no"?>
<svg width="300px" height="200px" viewBox="0 0 300 200" version="1.1" xmlns="http://www.w3.org/2000/svg" xmlns:xlink="http://www.w3.org/1999/xlink" xmlns:sketch="http://www.bohemiancoding.com/sketch/ns">
    <g id="Page-1" stroke="none" stroke-width="1" fill="none" fill-rule="evenodd" sketch:type="MSPage">
        <rect id="BG" fill="#FFFFFF" sketch:type="MSShapeGroup" x="0" y="0" width="300" height="200"></rect>
        <g id="Box" sketch:type="MSLayerGroup" transform="translate(77.000000, 85.000000)">
            <path d="M38.247923,0 L28,28 L-2.84217094e-14,28 L10.247923,0 L38.247923,0 Z" id="Outer" stroke="#2A759B" stroke-width="3" sketch:type="MSShapeGroup"></path>
            <path d="M20.0057065,16.8828896 L16.3000031,16.8828896 L18.4140304,11.1171104 L22.1197339,11.1171104 L20.0057065,16.8828896 Z" id="Inner-Dot" fill="#4C7790" sketch:type="MSShapeGroup"></path>
            <path d="M3.5,5.1 L29.5,5.1" id="Line" stroke="#0F496E" stroke-width="2.2" stroke-linecap="square" sketch:type="MSShapeGroup"></path>
        </g>
        <path d="M88.1466118,101.529236 L86.5034916,99 L83,109 L93,109 L91.5707701,106.800003 L86.3000031,106.800003 L88.1466118,101.529236 Z" id="Triangle-1" fill="#0F496E" sketch:type="MSShapeGroup"></path>
        <path d="M104.146612,91.529236 L102.503492,89 L99,99 L109,99 L107.57077,96.8000031 L102.300003,96.8000031 L104.146612,91.529236 Z" id="Triangle-1-Copy-2" fill="#0F496E" sketch:type="MSShapeGroup" transform="translate(104.000000, 94.000000) scale(-1, -1) translate(-104.000000, -94.000000) "></path>
        <path d="M116.08879,112.985149 L108.811614,112.985149 L119.335919,85 L126.613094,85 L116.08879,112.985149 Z M134.630474,92.1561776 C135.453875,91.314948 136.31053,90.6840353 137.200464,90.2634205 C138.090399,89.8428057 139.013585,89.6325015 139.970052,89.6325015 C141.168516,89.6325015 142.041841,89.9148277 142.590054,90.4794887 C143.138267,91.0441496 143.360416,91.755727 143.256506,92.6142421 C143.152597,93.4727573 142.723618,94.9045547 141.969557,96.9096773 L135.924095,112.985149 L128.940772,112.985149 L134.914728,97.0998172 C135.508443,95.5210713 135.818445,94.5588574 135.844742,94.2131466 C135.871039,93.8674358 135.647956,93.694583 135.175484,93.694583 C134.679965,93.694583 134.294075,93.8933637 134.017803,94.2909311 C133.74153,94.6884985 133.278374,95.7515433 132.628321,97.4800972 L126.797375,112.985149 L119.814052,112.985149 L128.440211,90.0473523 L135.544533,90.0473523 L134.630474,92.1561776 Z M155.119965,90.6004868 L157.004079,90.6004868 L155.638975,94.230432 L153.754861,94.230432 L149.139508,106.503104 C148.571795,108.012708 148.333224,108.853925 148.423789,109.02678 C148.514354,109.199635 149.130049,109.286062 150.270895,109.286062 L148.879789,112.985149 L146.06226,112.985149 C144.47199,112.985149 143.361842,112.918889 142.731781,112.786366 C142.101721,112.653844 141.617339,112.34847 141.278621,111.870237 C140.939902,111.392004 140.823091,110.844637 140.928182,110.228119 C141.033274,109.611601 141.514847,108.162519 142.372917,105.880827 L146.754252,94.230432 L145.250418,94.230432 L146.615522,90.6004868 L148.119356,90.6004868 L149.47796,86.9878271 L156.478569,86.9878271 L155.119965,90.6004868 Z M170.418958,103.720146 C169.643228,105.782887 168.970729,107.295349 168.401439,108.257577 C167.83215,109.219806 167.050472,110.11864 166.056382,110.954108 C165.062292,111.789576 163.957536,112.406084 162.742083,112.803651 C161.526629,113.201219 160.2275,113.4 158.844657,113.4 C157.300482,113.4 156.056483,113.230028 155.112623,112.890079 C154.168764,112.55013 153.529035,112.037333 153.19342,111.351673 C152.857804,110.666014 152.746335,109.83632 152.85901,108.862568 C152.971686,107.888816 153.394213,106.42821 154.126606,104.480706 L156.336775,98.6036517 C157.138507,96.4717685 157.995186,94.8066198 158.906837,93.6081557 C159.818488,92.4096916 161.010039,91.4474777 162.481525,90.721485 C163.953011,89.9954923 165.622149,89.6325015 167.488987,89.6325015 C169.056209,89.6325015 170.313824,89.8658527 171.26187,90.3325623 C172.209916,90.7992719 172.848462,91.4071376 173.177528,92.1561776 C173.506595,92.9052177 173.63397,93.6772935 173.559657,94.4724284 C173.485345,95.2675632 173.142669,96.4775328 172.531619,98.1023735 L170.418958,103.720146 Z M166.84352,94.1526475 C166.831602,93.8472696 166.618219,93.694583 166.203367,93.694583 C165.788514,93.694583 165.454529,93.8472696 165.201402,94.1526475 C164.948275,94.4580253 164.600698,95.1984115 164.158662,96.3738282 L160.264865,106.727815 C159.857498,107.811042 159.661205,108.516857 159.675979,108.845283 C159.690754,109.173708 159.899802,109.337918 160.303132,109.337918 C160.717984,109.337918 161.048005,109.188112 161.293203,108.888496 C161.538402,108.58888 161.847345,107.943563 162.220042,106.952526 L166.198346,96.3738282 C166.640382,95.1984115 166.855438,94.4580253 166.84352,94.1526475 Z M186.700854,112.985149 L180.322522,112.985149 L181.321373,100.263055 L176.537008,112.985149 L170.452528,112.985149 L180.976832,85 L187.061312,85 L186.401817,97.6010954 L191.140679,85 L197.225158,85 L186.700854,112.985149 Z M201.362332,101.922459 L199.496689,106.883384 C199.106658,107.920516 198.93021,108.58888 198.967343,108.888496 C199.004475,109.188112 199.236226,109.337918 199.662602,109.337918 C200.192692,109.337918 200.621795,109.139137 200.949925,108.74157 C201.278054,108.344003 201.656631,107.574808 202.085666,106.433962 L203.223253,103.409008 L209.843581,103.409008 L209.206533,105.102982 C208.673489,106.520396 208.174655,107.609369 207.710014,108.369933 C207.245374,109.130496 206.522126,109.942905 205.540249,110.807182 C204.558372,111.671459 203.482031,112.319657 202.311195,112.751795 C201.140358,113.183934 199.794397,113.4 198.273269,113.4 C196.798237,113.4 195.576251,113.186814 194.607275,112.760438 C193.6383,112.334061 192.979563,111.749243 192.631044,111.005964 C192.282525,110.262686 192.1552,109.444516 192.249063,108.55143 C192.342926,107.658344 192.710545,106.359067 193.35193,104.65356 L195.867623,97.9640899 C196.621684,95.9589673 197.487276,94.3773642 198.464425,93.219233 C199.441574,92.0611018 200.662574,91.1737908 202.127461,90.5572732 C203.592349,89.9407556 205.125666,89.6325015 206.72746,89.6325015 C208.686487,89.6325015 210.162902,90.004135 211.156747,90.7474132 C212.150592,91.4906914 212.673141,92.4759524 212.724407,93.7032257 C212.775674,94.930499 212.383113,96.6561462 211.546711,98.8802189 L210.402624,101.922459 L201.362332,101.922459 Z M205.436671,96.5121118 C205.883041,95.3251714 206.107847,94.5588574 206.111097,94.2131466 C206.114347,93.8674358 205.920072,93.694583 205.528266,93.694583 C205.044271,93.694583 204.689406,93.8415078 204.46366,94.135362 C204.237914,94.4292162 203.88236,95.2214582 203.396987,96.5121118 L202.766439,98.1888008 L204.806123,98.1888008 L205.436671,96.5121118 Z M225.317178,90.6004868 L227.201293,90.6004868 L225.836188,94.230432 L223.952074,94.230432 L219.336721,106.503104 C218.769008,108.012708 218.530438,108.853925 218.621002,109.02678 C218.711567,109.199635 219.327263,109.286062 220.468108,109.286062 L219.077002,112.985149 L216.259473,112.985149 C214.669203,112.985149 213.559055,112.918889 212.928995,112.786366 C212.298934,112.653844 211.814552,112.34847 211.475834,111.870237 C211.137115,111.392004 211.020304,110.844637 211.125396,110.228119 C211.230487,109.611601 211.712061,108.162519 212.57013,105.880827 L216.951465,94.230432 L215.447631,94.230432 L216.812735,90.6004868 L218.31657,90.6004868 L219.675173,86.9878271 L226.675782,86.9878271 L225.317178,90.6004868 Z" id="IntoNet-Text-Path" fill="#0F496E" sketch:type="MSShapeGroup"></path>
    </g>
</svg>