<svg width="1600" height="960" xmlns="http://www.w3.org/2000/svg">
<g transform="rotate(-30, 200, 960)">
	<rect x="0" y="0" width="2000" height="1000" fill="#000" />
	<rect x="0" y="1000" width="2000" height="50" fill="#b00" />
	<rect x="0" y="1050" width="2000" height="10" fill="#eee" />
</g> 
<svg x="100" y="100">
<g transform="scale(1)">
<path style="fill:#000000; stroke:none;" d="M0 0L0 270L270 270L270 0L0 0z"/>
<path style="fill:#ffffff; stroke:none;" d="M10 10L10 80L80 80L80 10L10 10M100 10L100 20L90 20L90 30L100 30L100 40L90 40L90 50L110 50L110 80L120 80L120 50L130 50L130 60L140 60L140 50L130 50L130 30L150 30L150 100L140 100L140 70L130 70L130 100L140 100L140 110L120 110L120 120L110 120L110 100L120 100L120 90L70 90L70 100L60 100L60 90L10 90L10 100L30 100L30 110L20 110L20 120L10 120L10 130L20 130L20 140L10 140L10 180L20 180L20 140L30 140L30 160L40 160L40 180L50 180L50 160L60 160L60 170L70 170L70 180L80 180L80 170L90 170L90 160L80 160L80 150L100 150L100 180L90 180L90 200L110 200L110 210L90 210L90 260L100 260L100 230L120 230L120 220L130 220L130 230L140 230L140 240L130 240L130 260L140 260L140 250L150 250L150 260L160 260L160 250L150 250L150 240L170 240L170 250L190 250L190 260L260 260L260 190L240 190L240 170L230 170L230 140L240 140L240 160L250 160L250 170L260 170L260 150L250 150L250 140L260 140L260 110L250 110L250 90L240 90L240 120L250 120L250 130L230 130L230 140L220 140L220 120L230 120L230 110L220 110L220 120L210 120L210 90L200 90L200 110L190 110L190 90L180 90L180 60L160 60L160 50L180 50L180 10L160 10L160 30L150 30L150 20L120 20L120 30L110 30L110 10L100 10M190 10L190 80L260 80L260 10L190 10z"/>
<path style="fill:#000000; stroke:none;" d="M20 20L20 70L70 70L70 20L20 20M200 20L200 70L250 70L250 20L200 20z"/>
<path style="fill:#ffffff; stroke:none;" d="M30 30L30 60L60 60L60 30L30 30z"/>
<path style="fill:#000000; stroke:none;" d="M160 30L160 40L170 40L170 30L160 30z"/>
<path style="fill:#ffffff; stroke:none;" d="M210 30L210 60L240 60L240 30L210 30z"/>
<path style="fill:#000000; stroke:none;" d="M110 40L110 50L120 50L120 40L110 40z"/>
<path style="fill:#ffffff; stroke:none;" d="M90 60L90 80L100 80L100 60L90 60z"/>
<path style="fill:#000000; stroke:none;" d="M160 70L160 100L180 100L180 90L170 90L170 70L160 70z"/>
<path style="fill:#ffffff; stroke:none;" d="M220 90L220 100L230 100L230 90L220 90z"/>
<path style="fill:#000000; stroke:none;" d="M40 100L40 120L50 120L50 100L40 100M70 100L70 110L60 110L60 130L80 130L80 140L70 140L70 150L60 150L60 160L70 160L70 170L80 170L80 160L70 160L70 150L80 150L80 140L100 140L100 150L110 150L110 140L120 140L120 170L110 170L110 200L120 200L120 190L140 190L140 200L130 200L130 220L160 220L160 230L180 230L180 240L190 240L190 250L200 250L200 230L210 230L210 240L230 240L230 250L250 250L250 230L240 230L240 240L230 240L230 220L220 220L220 230L210 230L210 220L200 220L200 230L180 230L180 220L160 220L160 210L150 210L150 200L170 200L170 190L160 190L160 180L170 180L170 160L150 160L150 170L140 170L140 180L130 180L130 160L140 160L140 150L130 150L130 140L150 140L150 150L170 150L170 140L180 140L180 150L190 150L190 160L180 160L180 170L220 170L220 180L230 180L230 170L220 170L220 160L210 160L210 150L220 150L220 140L210 140L210 120L200 120L200 140L190 140L190 120L180 120L180 130L170 130L170 120L160 120L160 110L140 110L140 120L130 120L130 140L120 140L120 130L110 130L110 140L100 140L100 120L70 120L70 110L90 110L90 100L70 100M20 120L20 130L30 130L30 140L50 140L50 130L30 130L30 120L20 120z"/>
<path style="fill:#ffffff; stroke:none;" d="M150 120L150 130L160 130L160 120L150 120M200 140L200 150L210 150L210 140L200 140z"/>
<path style="fill:#000000; stroke:none;" d="M40 150L40 160L50 160L50 150L40 150z"/>
<path style="fill:#ffffff; stroke:none;" d="M150 170L150 180L160 180L160 170L150 170z"/>
<path style="fill:#000000; stroke:none;" d="M180 180L180 210L210 210L210 180L180 180z"/>
<path style="fill:#ffffff; stroke:none;" d="M10 190L10 260L80 260L80 190L10 190M190 190L190 200L200 200L200 190L190 190z"/>
<path style="fill:#000000; stroke:none;" d="M20 200L20 250L70 250L70 200L20 200M230 200L230 210L250 210L250 200L230 200z"/>
<path style="fill:#ffffff; stroke:none;" d="M30 210L30 240L60 240L60 210L30 210z"/>
<path style="fill:#000000; stroke:none;" d="M110 210L110 220L120 220L120 210L110 210z"/>
<path style="fill:#ffffff; stroke:none;" d="M110 240L110 260L120 260L120 240L110 240z"/>
</g>
</svg>
</svg>