<?xml version="1.0" encoding="UTF-8" standalone="no"?>
<svg width="300px" height="200px" viewBox="0 0 1083 722" version="1.1" xmlns="http://www.w3.org/2000/svg" xmlns:xlink="http://www.w3.org/1999/xlink" xmlns:sketch="http://www.bohemiancoding.com/sketch/ns">
    <defs>
        <rect id="path-1" x="0" y="0" width="236" height="236" rx="40"></rect>
    </defs>
    <g id="Page-1" stroke="none" stroke-width="1" fill="none" fill-rule="evenodd" sketch:type="MSPage">
        <rect id="Canvas" fill="#FFFFFF" sketch:type="MSShapeGroup" x="0" y="-3" width="1083" height="722"></rect>
        <g id="Logo" sketch:type="MSLayerGroup" transform="translate(217.000000, 242.000000)">
            <mask id="mask-2" sketch:name="Mask" fill="white">
                <use xlink:href="#path-1"></use>
            </mask>
            <use id="Mask" fill="#000000" sketch:type="MSShapeGroup" xlink:href="#path-1"></use>
            <ellipse id="White" fill="#FFFFFF" sketch:type="MSShapeGroup" mask="url(#mask-2)" cx="245.5" cy="264.5" rx="271.5" ry="264.5"></ellipse>
            <ellipse id="Blue" fill="#005CA1" sketch:type="MSShapeGroup" mask="url(#mask-2)" cx="231" cy="248.5" rx="195" ry="232.5"></ellipse>
        </g>
        <g id="EET" sketch:type="MSLayerGroup" transform="translate(502.000000, 253.000000)" fill="#000000">
            <path d="M209,5 L209,0 L142,0 L142,15 L167,15 L167,86 L184,86 L184,15 L209,15 L209,5 L209,5 Z" id="Shape" sketch:type="MSShapeGroup"></path>
            <path d="M130,15 L90,15 L90,33 L116,33 L116,48 L90,48 L90,71 L134,71 L134,86 L73,86 L73,0 L133,0 L133,15 L130,15 L130,15 Z" id="Shape" sketch:type="MSShapeGroup"></path>
            <path d="M39,33 L17,33 L17,15 L60,15 L60,0 L0,0 L0,86 L61,86 L61,71 L17,71 L17,48 L42,48 L42,33 L39,33 L39,33 Z" id="Shape" sketch:type="MSShapeGroup"></path>
        </g>
        <text id="GROUP" sketch:type="MSTextLayer" font-family="DIN Alternate" font-size="125" font-weight="bold" letter-spacing="6" fill="#005CA1">
            <tspan x="491" y="474">GROU</tspan>
            <tspan x="822.434082" y="474">P</tspan>
        </text>
    </g>
</svg>