<svg height="263" viewBox="0 0 544 263" width="544" xmlns="http://www.w3.org/2000/svg"><path d="m213.676 80.351c8.148-.25 15.934.137 24.804-.15 11.745-.38 31.161 1.1 27.166 18.337-.919 3.968-6.408 6.972-10.009 8.646 4.89.827 10.017 3.256 11.709 8.266-1.994 2.116-3.922 3.993-6.02 6.009 1.619 1.32 3.385 3.165 4.726 4.778-1.59 1.515-2.128 2.818-4.297 4.295-9.648 6.568-23.254 3.968-34.374 4.475-3.278.149-10.567.245-13.361-.162-.558-.936-.311-49.743-.344-54.494m17.434 43.9c4.654.089 13.398.826 16.949-2.21 1.428-1.425 1.556-2.076 1.99-3.98-.074-.274-.153-.567-.233-.837-2.153-7.203-13.003-4.383-18.644-5.135-.012 3.976.05 8.206-.062 12.162m-.028-22.345c5.076.027 10.525.42 15.068-2.079 5.68-4.816-.903-9.036-6.067-8.79-1.997.094-7.072.06-8.894-.161-.021 3.497.056 7.581-.107 11.03"/><path d="m368.953 80.322c15.247-.48 31.842-.056 47.231-.13q.046 5.385.021 10.768c-9.1-.516-20.026.266-29.342-.078-.052 3.703.067 7.457-.122 11.147 9.052.254 18.859.091 27.965.102-.166 3.083-.029 7.054-.068 10.27-7.586.266-16.563.045-24.263.05-1.239.088-2.166-.047-3.39-.183-.282 3.584-.167 8.332-.156 11.98 9.391.261 21.176.295 30.565.088-.116 2.816-.224 8.023-.034 10.716-1.969-.12-4.218-.082-6.215-.051-14.158.218-28.472-.293-42.612.025.343-1.773.212-9.387.21-11.588l-.016-29.232c.001-3.321-.243-11.015.226-13.884"/><path d="m319.541 80.34c5.865-.243 12.206-.14 18.114-.136l.038 28.905c.003 4.407.204 10.85-.069 15.133 8.537.2 19.422.353 27.951.111q-.093 5.34-.053 10.678l-28.823-.04c-5.581-.001-11.709-.13-17.241.006.005-1.803-.303-6.33-.003-7.733-1.219.96-2.256 2.218-3.741 3.374l-2.9-1.915c2.001-3.39 2.598-4.858 3.288-8.832.233-1.34.073-5.902.374-6.329 1.065.313 1.427 1.293 2.886 2.098-.148-1.458.032-2.4.063-3.822.229-10.489-.143-21.01.116-31.497"/><path d="m312.814 128.723c2.001-3.39 2.598-4.858 3.288-8.832.233-1.34.073-5.902.374-6.329 1.065.313 1.427 1.293 2.886 2.098.81 1.509 4.143 4.644 5.592 5.86-1.504 1.46-4.328 4.102-5.499 5.744-1.219.96-2.256 2.218-3.741 3.374z" fill="#f00"/><path d="m438.15 80.208c4.131.195 8.657-.138 12.931.053.763.224 2.643.553 3.067.952.956 12.753-.396 27.209.413 39.712l.668-.055-.543.519-.083-.192.193.096.348-.927.138 1.772c-3.033 15.533-22.91 14.39-34.648 12.293-.117-4.146.158-8.162.047-12.208 18.272 5.348 17.486-6.533 17.386-20.219-.052-7.075-.171-14.77.083-21.796"/><g fill="#f00"><path d="m293.166 90.102c.591.244 20.745 20.074 22.633 22.117-3.801 1.081-5.73 1.49-9.689 1.915.805 2.295 1.62 6.884-1.139 8.182-1.138.035-.942-.062-2.07-.645-.542-.153-5.418-3.203-7.001-3.943 4.127-3.467 8.186-7.232 7.063-13.164a9.6 9.6 0 0 0 -4.078-6.16c-3.942-2.656-8.631-1.989-12.994-1.13 1.536-1.969 5.29-5.322 7.275-7.172"/><path d="m267.346 115.45c1.1-1.074 4.174-4.237 5.224-4.789 1.14.478 2.868 4.264 3.701 5.214.846.965 2.987 2.51 4.068 3.362l.049.237c-6.413 4.553-6.597 8.998-4.313 16.263-3.195-2.649-7.246-7.399-10.023-9.5-1.341-1.613-3.107-3.458-4.726-4.778 2.098-2.016 4.026-3.893 6.02-6.01"/><path d="m307.119 135.741c.874-.15 1.902.76 2.649 1.284-4.829 5.351-11.148 11.304-16.379 16.344-1.72-1.312-3.817-3.515-5.397-5.08a187 187 0 0 0 -7.247-6.724c7.833 1.79 12.967 2.976 20.241-1.738 2.12-1.374 3.903-2.865 6.133-4.086"/><path d="m288.033 123.445c1.41-.06 9.924 6.306 11.595 7.509-.946 1.124-2.608 2.482-3.77 3.366-8.365 3.847-15.251-6.14-7.825-10.875"/><path d="m287.917 103.773c6.998-.288 6.042 6.935.657 10.254-1.989-1.291-4.555-2.768-5.24-5.2-.848-3.005 2.212-4.452 4.583-5.054"/></g><path d="m451.081 80.26c1.629-.025 3.164-.063 4.793.041q-.086 13.07-.03 26.14c.001 3.663.199 12.652-.562 15.697l-.138-1.772-.348.927-.193-.096.083.192.543-.519-.668.055c-.809-12.503.543-26.96-.413-39.712-.424-.399-2.304-.728-3.067-.952"/><path d="m293.546 155.374c2.88-3.246 7.765-8.219 11.088-10.788 1.182-.913 13.265-.53 15.236-.521l24.338.07 78.192.007 22.48.007c3.402 0 8.91.162 12.12-.113v39.964h-370v-39.859c5.456.166 11.604.019 17.1.009l30.174-.013 95.055.002 34.727-.09c4.74-.004 13.083-.246 17.578.146 3.838 2.885 8.066 8.315 11.912 11.18m-195.567 21.99c10.78-.515 22.353 2.08 31.61-4.065 2.447-2.222 3.879-3.833 3.996-7.356.616-18.472-23.879-13.05-35.565-14.017.02 7.5.336 18.192-.04 25.438m166.538-15.411c-.147-1.848-.136-2.956-.056-4.814 5.169-.26 11.556-.165 16.771-.08-.152-1.408.004-4.604-.464-5.143-8.013.06-18.331.335-26.191.08.346 2.552.409 22.78-.183 25.477 3.805-.436 11.088-.138 15.165-.19 2.811-.036 9.91-.155 12.449.108.013-1.288.279-3.527-.234-4.476-.883-.616-1.141-.42-2.336-.435-3.141-.064-12.378.1-14.922-.216-.05-1.76-.11-3.4-.01-5.165 4.832-.25 10.647-.133 15.546-.099-.042-1.721-.077-3.255.005-4.974-3.714.031-12.083.31-15.54-.073m152.878 15.524c3.877-.452 11.237-.123 15.384-.196 2.544-.045 10.016-.132 12.232.126l.015-4.933c-3.853-.013-14.146.155-17.517-.174-.124-1.986-.143-3.24-.049-5.226l3.228-.075c4.047-.002 8.336-.068 12.365 0-.042-1.724-.077-3.252.008-4.974-5.154.042-10.464.155-15.602-.04-.128-1.792-.131-3.072-.085-4.87 5.178-.188 11.661-.204 16.853-.06-.213-1.86-.225-3.282-.064-5.158-5.429.124-10.982.053-16.425.065-3.171.008-7.064.163-10.154.01.358 2.744.367 23.007-.189 25.505m-25.438-25.574a1268 1268 0 0 1 -16.581.082c-3.261.006-7.526.124-10.73-.057.12 1.196-.041 4.628.152 4.96 1.152.366 7.527.094 9.26.103a363 363 0 0 0 -.141 12.252c-.01 2.312.084 5.927-.309 8.111 2.812-.1 7.742-.23 10.463.1-.145-6.312.172-14.47-.15-20.483l8.636.079c-.274-1.51-.181-4.661-.6-5.147m-231.27.087c.375 2.62.42 22.948-.077 25.363 2.523-.09 7.658-.234 10.063.062l.297-.392c.049-7.665-.172-17.736.04-25.082-3.4.073-6.938.202-10.323.049m147.863-.157c-.121 5.343.165 11.176.023 16.57-.079 2.986.213 6.157-.3 9.113 3.046-.385 7.097-.267 10.211-.18-.424-3.635-.113-7.901-.365-11.727 4.362 3.798 7.659 8.069 11.72 11.876 3.716-.253 9.514-.445 13.121.22-1.422-1.216-5.397-4.504-6.506-5.845-1.936-2.202-6.207-6.086-8.508-8.135 3.97-3.808 9.673-9.087 14.274-12.154-3.261.557-9.012.303-12.509.426-.985.667-10.317 9.327-11.483 10.61.004-3.516-.053-7.35.086-10.839-1.878.249-7.983.41-9.764.065m-109.954.137c.317 2.637.392 22.892-.198 25.503 2.476-.274 7.78-.306 10.309-.037-.314-2.63-.288-7.448-.157-10.15 2.06-.108 3.197-.13 5.244.035 2.762 2.012 4.707 6.907 5.639 10.154 1.474-.072 3.511-.23 4.942-.188 1.762.009 4.042-.043 5.749.171-2.397-4.435-3.493-9.312-7.411-12.316 1.674-.909 3.4-1.803 4.966-2.884.775-1.857 1.549-4.074.614-6.001-2.686-5.54-11.78-4.124-16.737-4.276-4.537-.14-8.648.273-12.96-.011" fill="#f00"/><path d="m107.982 156.982q2.379-.018 4.758.012c3.23.067 7.136.5 9.48 2.977 2.724 2.88 2.188 7.076-.56 9.667-4.275 3.11-8.38 2.19-13.516 2.524-.253-4.568-.108-10.483-.162-15.18" fill="#f00"/><path d="m208.941 156.986c2.427-.015 7.43-.406 9.463 1.37 1.09.952.339 2.635-.541 3.605-2.866 1.214-5.742.92-8.911 1.01z" fill="#f00"/><path d="m169.823 79h12.068c.61.32 1.79.58 2.51.737 4.338.944 8.257 2.42 12.354 4.12.766-.578 2.732-2.161 3.409-2.526 3.565-1.92 8.425-.852 12.858-1.181-3.179 2.741-6.537 5.881-9.604 8.738 1.559 2.135 2.493 3.474 3.706 5.904 3.28 6.57 3.483 16.151 1.188 23.086-2.008 6.07-7.075 11.378-12.912 14.12-9.06 4.257-21.128 4.76-30.863 2.66-3.35-.722-6.784-2.272-10.024-3.413-1.625 1.06-3.157 2.704-5.003 3.346-2.973 1.033-18.999.511-23.004.302-1.82-1.9-4.764-5.667-6.614-7.854l-14.318-16.917c.236 2.226.119 6.014.114 8.347q-.069 8.266.017 16.531l-18.022-.032c.26-5.566.048-12.822.05-18.53l.016-36.12c5.816-.21 12.022-.086 17.888-.138.208 7.022.01 15.18.044 22.321 5.47-6.233 10.917-12.412 16.75-18.31 1.29-1.304 2.574-2.75 4.06-3.827 6.17-.62 15.049.139 21.612-.158a1409 1409 0 0 1 -15.96 16.285c-2.855 2.888-6.446 6.343-9.085 9.341 2.09 2.738 7.403 8.236 9.93 10.929 3.176 3.384 8.349 9.316 11.59 12.146 1.459-1.047 2.41-1.677 3.972-2.554-6.291-9.004-8.348-18.388-4.688-29.183 2.537-7.481 9.83-13.648 17.27-15.873 2.507-.75 6.467-1.278 8.691-2.297m-4.055 42.498c1.107.605 2.427 1.374 3.54 1.922 7.861 3.383 16.547 1.029 20.183-7.158 1.413-3.179 3.039-13.155.177-15.594l-16.04 13.79c-1.719 1.482-6.61 5.556-7.86 7.04m2.557-12.878c4.627-4 13.287-11.008 17.354-15.164-4.665-2.674-7.12-2.957-12.47-2.605-9.7 1.15-12.91 10.158-12.108 18.903.096 1.054.423 2.828.994 3.699l.374.15c1.437-.931 4.442-3.723 5.856-4.983"/></svg>