<?xml version="1.0" encoding="UTF-8" standalone="no"?>
<svg width="300px" height="200px" viewBox="0 0 630 420" version="1.1" xmlns="http://www.w3.org/2000/svg" xmlns:xlink="http://www.w3.org/1999/xlink" xmlns:sketch="http://www.bohemiancoding.com/sketch/ns">
    <defs>
        <linearGradient x1="49.9106736%" y1="10.7598989%" x2="49.9106736%" y2="77.8542544%" id="linearGradient-1">
            <stop stop-color="#E8BA1F" offset="0%"></stop>
            <stop stop-color="#E7B420" offset="11.8%"></stop>
            <stop stop-color="#E6A222" offset="28%"></stop>
            <stop stop-color="#E38625" offset="46.5%"></stop>
            <stop stop-color="#E28026" offset="49.7%"></stop>
            <stop stop-color="#CA5328" offset="100%"></stop>
        </linearGradient>
        <linearGradient x1="49.8900325%" y1="4.72114402%" x2="49.8900325%" y2="95.6455567%" id="linearGradient-2">
            <stop stop-color="#FFFFFF" offset="0.6%"></stop>
            <stop stop-color="#E8E9E8" offset="100%"></stop>
        </linearGradient>
    </defs>
    <g id="Page-1" stroke="none" stroke-width="1" fill="none" fill-rule="evenodd" sketch:type="MSPage">
        <g sketch:type="MSLayerGroup" transform="translate(64.000000, 101.000000)" id="logo">
            <g sketch:type="MSShapeGroup">
                <path d="M305.4,66.3 C304.8,64 303.9,61.9 302.9,59.8 C307.8,50.7 307.8,39.5 302.4,30.2 C297.1,21.1 287.5,15.3 277,14.9 C271.5,6.1 261.8,0.5 251.1,0.5 C240.4,0.5 230.6,6.1 225.2,14.9 C214.7,15.3 205,21 199.8,30.2 C194.4,39.5 194.4,50.7 199.3,59.8 C198.2,61.8 197.4,64 196.8,66.3 C194.7,74.2 195.8,82.4 199.8,89.5 C205.1,98.6 214.7,104.4 225.2,104.8 C230.7,113.6 240.4,119.2 251.1,119.2 C261.8,119.2 271.6,113.6 277,104.8 C287.5,104.4 297.2,98.7 302.4,89.5 C306.4,82.4 307.5,74.2 305.4,66.3 L305.4,66.3 L305.4,66.3 Z" id="Shape" fill="url(#linearGradient-1)"></path>
                <path d="M251,0.6 C261.7,0.6 271.5,6.2 276.9,15 C287.4,15.4 297.1,21.1 302.3,30.3 C307.7,39.6 307.7,50.8 302.8,59.9 C303.9,61.9 304.7,64.1 305.3,66.4 C307.4,74.3 306.3,82.5 302.3,89.6 C297,98.7 287.4,104.5 276.9,104.9 C271.4,113.7 261.7,119.3 251,119.3 C240.3,119.3 230.5,113.7 225.1,104.9 C214.6,104.5 205,98.8 199.7,89.6 C195.6,82.5 194.5,74.3 196.7,66.4 C197.3,64.1 198.2,62 199.2,59.9 C194.3,50.8 194.3,39.6 199.7,30.3 C205,21.2 214.6,15.4 225.1,15 C230.5,6.2 240.3,0.6 251,0.6 L251,0.6 L251,0.6 Z M251,0.3 C245.7,0.3 240.5,1.7 235.9,4.2 C231.4,6.7 227.6,10.3 224.9,14.7 C219.8,14.9 214.7,16.4 210.3,19.1 C205.8,21.8 202,25.6 199.4,30.1 C196.8,34.7 195.3,39.9 195.3,45.1 C195.2,50.2 196.5,55.3 198.8,59.9 C197.7,61.9 196.9,64.1 196.3,66.3 C194.2,74.3 195.3,82.6 199.4,89.7 C202,94.2 205.8,98 210.3,100.7 C214.7,103.4 219.8,104.9 224.9,105.1 C227.6,109.4 231.4,113 235.9,115.5 C240.5,118.1 245.7,119.4 251,119.4 C256.3,119.4 261.5,118 266.1,115.5 C270.6,113 274.4,109.4 277.1,105.1 C282.2,104.9 287.3,103.4 291.7,100.7 C296.2,98 300,94.2 302.6,89.7 C306.7,82.6 307.8,74.3 305.7,66.3 C305.1,64.1 304.3,61.9 303.2,59.9 C305.6,55.4 306.8,50.3 306.7,45.1 C306.6,39.8 305.2,34.6 302.6,30.1 C300,25.6 296.2,21.8 291.7,19.1 C287.3,16.4 282.2,14.9 277.1,14.7 C274.4,10.4 270.6,6.8 266.1,4.3 C261.5,1.6 256.3,0.3 251,0.3 L251,0.3 L251,0.3 Z" id="Shape" opacity="0.4" fill="#CA5328"></path>
                <path d="M295.4,69 C294.5,65.5 292.6,62.3 290.1,59.9 C296.5,53.6 298.1,43.6 293.4,35.4 C289.8,29.2 283.1,25.3 275.9,25.3 C274.1,25.3 272.3,25.5 270.6,26 C268.3,17.3 260.4,10.9 251.1,10.9 C241.7,10.9 233.8,17.3 231.6,26 C229.9,25.5 228.1,25.3 226.3,25.3 C219.1,25.3 212.4,29.2 208.8,35.4 C204.1,43.5 205.7,53.6 212.1,59.9 C209.6,62.4 207.7,65.5 206.8,69 C205.4,74.2 206.1,79.7 208.8,84.3 C212.4,90.5 219.1,94.4 226.3,94.4 C228.1,94.4 229.9,94.2 231.6,93.7 C233.9,102.4 241.8,108.8 251.1,108.8 C260.5,108.8 268.4,102.4 270.6,93.7 C272.3,94.2 274.1,94.4 275.9,94.4 C283.1,94.4 289.8,90.5 293.4,84.3 C296.1,79.7 296.8,74.2 295.4,69 L295.4,69 L295.4,69 Z M268.2,66.3 C269.4,66.3 270.6,66 271.6,65.5 C274.5,64.1 277.9,64.2 280.7,65.8 C285.3,68.5 286.9,74.4 284.2,79 C281.5,83.6 275.6,85.2 271,82.6 C268.2,81 266.4,78.1 266.2,74.9 C266.1,73.7 265.8,72.5 265.2,71.5 C263.4,68.5 259.5,67.4 256.4,69.1 C253.3,70.9 252.3,74.8 254,77.9 C254.6,78.9 255.4,79.8 256.4,80.5 C259.1,82.3 260.7,85.3 260.7,88.6 C260.7,93.9 256.4,98.3 251,98.3 C245.7,98.3 241.3,94 241.3,88.6 C241.3,85.4 242.9,82.3 245.6,80.5 C246.6,79.8 247.4,78.9 248,77.9 C249.7,74.8 248.7,70.9 245.6,69.1 C242.5,67.3 238.6,68.4 236.8,71.5 C236.2,72.5 235.8,73.7 235.8,74.9 C235.6,78.1 233.8,81 231,82.6 C226.4,85.3 220.4,83.7 217.8,79 C215.1,74.4 216.7,68.4 221.3,65.8 C224.1,64.2 227.5,64.1 230.4,65.5 C231.5,66 232.7,66.3 233.8,66.3 C237.3,66.3 240.3,63.4 240.3,59.8 C240.3,56.3 237.4,53.4 233.8,53.3 C232.6,53.3 231.4,53.6 230.4,54.1 C227.5,55.5 224.1,55.4 221.3,53.8 C216.7,51.1 215.1,45.2 217.8,40.6 C220.5,36 226.4,34.4 231,37.1 C233.8,38.7 235.6,41.6 235.8,44.8 C235.9,46 236.2,47.2 236.8,48.2 C238.6,51.2 242.6,52.3 245.6,50.6 C248.7,48.8 249.7,44.9 248,41.8 C247.4,40.8 246.6,39.9 245.6,39.2 C242.9,37.4 241.3,34.4 241.3,31.1 C241.3,25.8 245.7,21.4 251,21.4 C256.3,21.4 260.7,25.7 260.7,31.1 C260.7,34.3 259.1,37.4 256.4,39.2 C255.4,39.9 254.6,40.8 254,41.8 C252.3,44.9 253.3,48.9 256.4,50.6 C259.5,52.4 263.4,51.3 265.2,48.2 C265.8,47.2 266.2,46 266.2,44.8 C266.4,41.6 268.2,38.7 271,37.1 C275.6,34.4 281.6,36 284.2,40.6 C286.9,45.2 285.3,51.2 280.7,53.8 C277.9,55.4 274.5,55.5 271.6,54.1 C270.5,53.6 269.3,53.3 268.2,53.3 C264.7,53.3 261.7,56.2 261.7,59.8 C261.7,63.4 264.6,66.3 268.2,66.3 L268.2,66.3 L268.2,66.3 Z" id="Shape" fill="url(#linearGradient-2)"></path>
                <path d="M251,10.9 C260.4,10.9 268.3,17.3 270.5,26 C272.2,25.5 274,25.3 275.8,25.3 C283,25.3 289.7,29.2 293.3,35.4 C298,43.5 296.4,53.6 290,59.9 C292.5,62.4 294.4,65.5 295.3,69 C296.7,74.2 296,79.7 293.3,84.3 C289.7,90.5 283,94.4 275.8,94.4 C274,94.4 272.2,94.2 270.5,93.7 C268.2,102.4 260.3,108.8 251,108.8 C241.6,108.8 233.7,102.4 231.5,93.7 C229.8,94.2 228,94.4 226.2,94.4 C219,94.4 212.3,90.5 208.7,84.3 C206,79.6 205.3,74.2 206.7,69 C207.6,65.5 209.5,62.3 212,59.9 C205.6,53.6 204,43.6 208.7,35.4 C212.3,29.2 219,25.3 226.2,25.3 C228,25.3 229.8,25.5 231.5,26 C233.7,17.4 241.6,10.9 251,10.9 L251,10.9 L251,10.9 Z M242.5,51.4 C240.3,51.4 238.1,50.2 236.9,48.2 C236.3,47.2 235.9,46 235.9,44.8 C235.7,41.6 233.9,38.7 231.1,37.1 C229.6,36.2 227.9,35.8 226.3,35.8 C222.9,35.8 219.7,37.5 217.9,40.6 C215.2,45.2 216.8,51.2 221.4,53.8 C222.9,54.7 224.6,55.1 226.2,55.1 C227.7,55.1 229.1,54.8 230.5,54.1 C231.5,53.6 232.7,53.3 233.9,53.3 L234,53.3 C237.5,53.3 240.5,56.2 240.5,59.8 C240.5,63.3 237.6,66.2 234,66.3 L233.9,66.3 C232.7,66.3 231.6,66 230.5,65.5 C229.1,64.8 227.7,64.5 226.2,64.5 C224.5,64.5 222.8,64.9 221.4,65.8 C216.8,68.5 215.2,74.4 217.9,79 C219.7,82.1 223,83.9 226.3,83.9 C227.9,83.9 229.6,83.5 231.1,82.6 C233.9,81 235.7,78.1 235.9,74.9 C236,73.7 236.3,72.5 236.9,71.5 C238.1,69.5 240.3,68.3 242.5,68.3 C243.6,68.3 244.7,68.6 245.7,69.2 C248.8,71 249.8,74.9 248.1,78 C247.5,79 246.7,79.9 245.7,80.6 C243,82.4 241.4,85.4 241.4,88.7 C241.4,94 245.8,98.4 251.1,98.4 C256.4,98.4 260.8,94.1 260.8,88.7 C260.8,85.5 259.2,82.4 256.5,80.6 C255.5,79.9 254.7,79 254.1,78 C252.4,74.9 253.4,71 256.5,69.2 C257.5,68.6 258.6,68.3 259.7,68.3 C261.9,68.3 264.1,69.5 265.3,71.5 C265.9,72.5 266.3,73.7 266.3,74.9 C266.5,78.1 268.3,81 271.1,82.6 C272.6,83.5 274.3,83.9 275.9,83.9 C279.3,83.9 282.5,82.2 284.3,79 C287,74.4 285.4,68.4 280.8,65.8 C279.3,64.9 277.6,64.5 276,64.5 C274.5,64.5 273.1,64.8 271.7,65.5 C270.7,66 269.5,66.3 268.3,66.3 L268.2,66.3 C264.7,66.3 261.7,63.4 261.7,59.8 C261.7,56.3 264.6,53.4 268.2,53.3 L268.3,53.3 C269.5,53.3 270.6,53.6 271.7,54.1 C273.1,54.8 274.5,55.1 276,55.1 C277.7,55.1 279.3,54.7 280.8,53.8 C285.4,51.1 287,45.2 284.3,40.6 C282.5,37.5 279.2,35.8 275.9,35.8 C274.3,35.8 272.6,36.2 271.1,37.1 C268.3,38.7 266.5,41.6 266.3,44.8 C266.2,46 265.9,47.2 265.3,48.2 C264.1,50.2 261.9,51.4 259.7,51.4 C258.6,51.4 257.5,51.1 256.5,50.5 C253.4,48.7 252.4,44.8 254.1,41.7 C254.7,40.7 255.5,39.8 256.5,39.1 C259.2,37.3 260.8,34.3 260.8,31 C260.8,25.7 256.5,21.3 251.1,21.3 C245.8,21.3 241.4,25.6 241.4,31 C241.4,34.2 243,37.3 245.7,39.1 C246.7,39.8 247.5,40.7 248.1,41.7 C249.8,44.8 248.8,48.8 245.7,50.5 C244.6,51.2 243.5,51.4 242.5,51.4 L242.5,51.4 L242.5,51.4 Z M251,10.7 C241.8,10.7 233.7,16.9 231.3,25.7 C229.6,25.3 227.9,25 226.1,25 C218.8,25 212,28.9 208.4,35.2 C203.8,43.2 205.1,53.2 211.6,59.8 C209.1,62.3 207.3,65.4 206.4,68.9 C205,74.2 205.7,79.7 208.4,84.4 C212,90.7 218.8,94.6 226.1,94.6 C227.8,94.6 229.6,94.4 231.3,93.9 C233.7,102.8 241.8,108.9 251,108.9 C260.2,108.9 268.3,102.7 270.7,93.9 C272.4,94.3 274.1,94.6 275.9,94.6 C283.2,94.6 290,90.7 293.6,84.4 C296.3,79.7 297,74.2 295.6,68.9 C294.7,65.5 292.9,62.3 290.4,59.8 C296.9,53.3 298.2,43.2 293.6,35.2 C290,28.9 283.2,25 275.9,25 C274.2,25 272.4,25.2 270.7,25.7 C268.3,16.9 260.2,10.7 251,10.7 L251,10.7 L251,10.7 Z M242.5,51.7 C243.7,51.7 244.8,51.4 245.8,50.8 C249,49 250.1,44.9 248.2,41.7 C247.6,40.6 246.7,39.7 245.7,39 C243.1,37.2 241.5,34.3 241.5,31.1 C241.5,25.9 245.7,21.6 251,21.6 C256.2,21.6 260.5,25.8 260.5,31.1 C260.5,34.3 258.9,37.2 256.3,39 C255.3,39.7 254.4,40.6 253.8,41.7 C252,44.9 253.1,49 256.2,50.8 C257.2,51.4 258.3,51.7 259.5,51.7 C261.9,51.7 264.1,50.4 265.3,48.4 C265.9,47.4 266.3,46.1 266.4,44.9 C266.6,41.8 268.4,38.9 271.1,37.4 C272.5,36.6 274.2,36.1 275.8,36.1 C279.2,36.1 282.3,37.9 284,40.8 C286.6,45.3 285.1,51.1 280.5,53.7 C279.1,54.5 277.4,55 275.8,55 C274.4,55 272.9,54.7 271.6,54 C270.5,53.5 269.3,53.2 268.1,53.2 L268,53.2 C264.3,53.2 261.3,56.2 261.3,59.9 C261.3,63.6 264.3,66.6 268,66.6 L268.1,66.6 C269.3,66.6 270.5,66.3 271.6,65.8 C272.9,65.2 274.3,64.8 275.8,64.8 C277.5,64.8 279.1,65.2 280.5,66.1 C282.7,67.4 284.2,69.4 284.9,71.8 C285.6,74.2 285.2,76.8 284,79 C282.3,81.9 279.2,83.7 275.8,83.7 C274.2,83.7 272.5,83.3 271.1,82.4 C268.4,80.8 266.6,78 266.4,74.9 C266.3,73.7 265.9,72.4 265.3,71.4 C264.1,69.4 261.9,68.1 259.5,68.1 C258.3,68.1 257.2,68.4 256.2,69 C253,70.8 251.9,74.9 253.8,78.1 C254.4,79.2 255.3,80.1 256.3,80.8 C258.9,82.6 260.5,85.5 260.5,88.7 C260.5,93.9 256.3,98.2 251,98.2 C245.8,98.2 241.5,94 241.5,88.7 C241.5,85.5 243.1,82.6 245.7,80.8 C246.7,80.1 247.6,79.2 248.2,78.1 C250,74.9 248.9,70.8 245.8,69 C244.8,68.4 243.7,68.1 242.5,68.1 C240.1,68.1 237.9,69.4 236.7,71.4 C236.1,72.4 235.7,73.7 235.6,74.9 C235.4,78 233.6,80.9 230.9,82.4 C229.5,83.2 227.8,83.7 226.2,83.7 C222.8,83.7 219.7,81.9 218,79 C216.7,76.8 216.4,74.3 217.1,71.8 C217.7,69.4 219.3,67.3 221.5,66.1 C222.9,65.3 224.6,64.8 226.2,64.8 C227.6,64.8 229.1,65.1 230.4,65.8 C231.5,66.3 232.7,66.6 233.9,66.6 L234,66.6 C237.7,66.6 240.7,63.6 240.7,59.9 C240.7,56.2 237.7,53.2 234,53.2 L233.9,53.2 C232.7,53.2 231.5,53.5 230.4,54 C229.1,54.6 227.7,55 226.2,55 C224.5,55 222.9,54.6 221.5,53.7 C217,51.1 215.4,45.3 218,40.8 C219.7,37.9 222.8,36.1 226.2,36.1 C227.8,36.1 229.5,36.5 230.9,37.4 C233.6,39 235.4,41.8 235.6,44.9 C235.7,46.1 236.1,47.4 236.7,48.4 C237.8,50.4 240.1,51.7 242.5,51.7 L242.5,51.7 L242.5,51.7 Z" id="Shape" opacity="0.3" fill="#CA5328"></path>
                <g id="Group" transform="translate(0.000000, 154.000000)" fill="#231F20">
                    <path d="M45.7,47.3 C40.7,50.2 34.6,51.6 27.3,51.6 C19.1,51.6 12.7,49.3 8,44.8 C3.3,40.3 0.9,34.6 0.9,26.7 C0.9,18.7 3.5,13 8.6,8 C13.7,3 20.6,0.5 29.1,0.5 C34.5,0.5 39.2,1.2 43.3,2.7 L43.3,13.4 C39.4,11.1 34.6,10 28.9,10 C24.2,10 20.3,11.2 17.1,14.5 C14.1,17.6 12.9,21 12.9,26.2 C12.9,31.4 14.2,34.9 16.9,37.8 C19.6,40.7 23.2,42.1 27.7,42.1 C30.4,42.1 32.6,41.7 34.2,40.9 L34.2,32.5 L24.1,32.5 L24.1,23.4 L45.7,23.4 L45.7,47.3 L45.7,47.3 L45.7,47.3 Z M121.8,10.6 L107.4,10.6 L107.4,50.7 L95.9,50.7 L95.9,10.6 L81.5,10.6 L81.5,1.2 L121.8,1.2 L121.8,10.6 L121.8,10.6 Z M70,51.6 C64,51.6 59.2,49.9 55.8,46.5 C52.3,43.1 50.6,38.5 50.6,32.7 C50.6,26.7 52.4,22 56,18.6 C59.6,15.2 64.4,13.5 70.5,13.5 C76.5,13.5 81.2,15.2 84.6,18.6 C88,22 89.7,26.5 89.7,32 C89.7,38 87.9,42.8 84.4,46.2 C80.9,49.8 76.1,51.6 70,51.6 L70,51.6 L70,51.6 Z M70.3,22.1 C67.7,22.1 65.6,23 64.2,24.8 C62.7,26.6 61.8,29.2 61.8,32.5 C61.8,39.5 64.9,42.9 70.5,42.9 C75.8,42.9 78.8,39.3 78.8,32.2 C78.6,25.5 75.7,22.1 70.3,22.1 L70.3,22.1 L70.3,22.1 Z M133,51.6 C127,51.6 122.2,49.9 118.8,46.5 C115.3,43.1 113.6,38.5 113.6,32.7 C113.6,26.7 115.4,22 119,18.6 C122.6,15.2 127.4,13.5 133.5,13.5 C139.5,13.5 144.2,15.2 147.6,18.6 C151,22 152.7,26.5 152.7,32 C152.7,38 150.9,42.8 147.4,46.2 C144,49.8 139.1,51.6 133,51.6 L133,51.6 L133,51.6 Z M133.3,22.1 C130.7,22.1 128.6,23 127.2,24.8 C125.7,26.6 124.8,29.2 124.8,32.5 C124.8,39.5 127.9,42.9 133.5,42.9 C138.9,42.9 141.8,39.3 141.8,32.2 C141.6,25.5 138.7,22.1 133.3,22.1 L133.3,22.1 L133.3,22.1 Z M201.9,15.2 L201.9,50.6 L207,50.6 L207,1.2 L202.5,1.2 L184.3,39.6 C183.9,40.6 183.7,41.3 183.5,41.8 L183.1,40.8 C183,40.4 182.8,40 182.7,39.8 L164.2,1.2 L159.6,1.2 L159.6,50.6 L164.8,50.6 L164.8,13.3 L182.3,50.7 L184.5,50.7 L202,12.9 C201.9,14 201.9,14.8 201.9,15.2 L201.9,15.2 L201.9,15.2 Z M378.1,14.2 L378.1,18.1 C375.6,15.1 372.1,13.6 367.7,13.6 C362.6,13.6 358.5,15.5 355.4,19.2 C352.3,22.9 350.8,27.4 350.8,33.2 C350.8,39 352.2,43.3 355.1,46.6 C358,49.9 361.8,51.6 366.3,51.6 C371.3,51.6 375.2,49.8 378.1,46.3 C377.7,55 373.2,59.2 364.6,59.2 C361.5,59.2 358.1,58.2 354.6,56.2 L353.3,55.4 L353.3,60.8 L353.8,61.1 C357.5,62.9 361.1,63.8 364.6,63.8 C370.9,63.8 375.6,62.2 378.6,59 C381.6,55.8 383.1,50.7 383.1,44 L383.1,14.2 L378.1,14.2 L378.1,14.2 L378.1,14.2 Z M375,43.5 C372.9,45.8 370.2,46.9 366.7,46.9 C363.4,46.9 360.9,45.7 358.9,43.3 C356.9,40.8 355.9,37.5 355.9,33 C355.9,28.5 357,25.1 359.2,22.4 C361.4,19.7 364.2,18.4 367.8,18.4 C370.9,18.4 373.3,19.4 375.3,21.5 C377.2,23.6 378.2,26 378.2,28.9 L378.2,35.3 C378.1,38.5 377.1,41.2 375,43.5 L375,43.5 L375,43.5 Z M291,5.1 L286.1,6.6 L286.1,14.2 L279.8,14.2 L279.8,18.9 L286.1,18.9 L286.1,41.2 C286.1,49.6 290.8,51.4 294.7,51.4 C296.3,51.4 297.9,51 299.7,50.2 L300.2,50 L300.2,45 L298.9,45.8 C297.5,46.6 296.3,46.9 295.1,46.9 C293.6,46.9 292.6,46.5 292,45.7 C291.4,44.8 291,43.2 291,41 L291,19.1 L300.2,19.1 L300.2,14.4 L291,14.4 L291,5.1 L291,5.1 L291,5.1 Z M263.8,13.6 C258.9,13.6 254.9,15.5 251.8,19.2 C248.8,22.8 247.2,27.1 247.2,32.4 C247.2,38.5 248.7,43 251.6,46.4 C254.5,49.8 258.5,51.6 263.2,51.6 C267.8,51.6 272.1,50.2 275.8,47.6 L276.2,47.3 L276.2,41.6 L274.7,42.7 C271.1,45.5 267.5,46.8 263.8,46.8 C260.2,46.8 257.4,45.6 255.4,43.1 C253.5,40.7 252.4,37.7 252.3,33.6 L278.1,33.6 L278.1,31.3 C278.1,25.9 276.9,21.7 274.4,18.5 C272,15.3 268.4,13.6 263.8,13.6 L263.8,13.6 L263.8,13.6 Z M263.6,18.3 C266.5,18.3 268.7,19.3 270.3,21.3 C271.8,23.2 272.7,25.6 272.9,29 L252.5,29 C253.1,25.6 254.3,23.2 256.1,21.4 C258.1,19.3 260.6,18.3 263.6,18.3 L263.6,18.3 L263.6,18.3 Z M228.8,13.6 C223.9,13.6 219.9,15.5 216.8,19.2 C213.8,22.8 212.2,27.1 212.2,32.4 C212.2,38.5 213.7,43 216.6,46.4 C219.5,49.8 223.4,51.6 228.2,51.6 C232.8,51.6 237.1,50.2 240.8,47.6 L241.2,47.3 L241.2,41.6 L239.7,42.7 C236.1,45.5 232.5,46.8 228.8,46.8 C225.2,46.8 222.4,45.6 220.4,43.1 C218.5,40.7 217.4,37.7 217.3,33.6 L243.1,33.6 L243.1,31.3 C243.1,25.9 241.9,21.7 239.4,18.5 C237,15.3 233.4,13.6 228.8,13.6 L228.8,13.6 L228.8,13.6 Z M228.7,18.3 C231.6,18.3 233.8,19.3 235.4,21.3 C236.9,23.2 237.8,25.6 238.1,29 L217.7,29 C218.3,25.6 219.5,23.2 221.3,21.4 C223.2,19.3 225.6,18.3 228.7,18.3 L228.7,18.3 L228.7,18.3 Z M310.9,1.3 C309.5,0.1 307.5,0.1 306.1,1.3 C305.4,1.9 305,2.8 305,3.8 C305,4.8 305.4,5.7 306.1,6.4 C306.8,7.1 307.6,7.4 308.5,7.4 C309.5,7.4 310.3,7 311,6.4 C311.7,5.7 312,4.9 312,3.9 C312,2.8 311.6,1.9 310.9,1.3 L310.9,1.3 L310.9,1.3 Z M306,14.2 L310.9,14.2 L310.9,50.7 L306,50.7 L306,14.2 L306,14.2 Z M333.8,13.6 C329.1,13.6 325.3,15.4 322.6,18.8 L322.6,14.1 L317.7,14.1 L317.7,50.6 L322.6,50.6 L322.6,30.2 C322.6,26.8 323.6,23.9 325.6,21.6 C327.6,19.3 330.1,18.2 333.2,18.2 C338.7,18.2 341.4,22 341.4,29.9 L341.4,50.6 L346.3,50.6 L346.3,29 C346.3,24.2 345.2,20.3 343.1,17.7 C341,15 337.8,13.6 333.8,13.6 L333.8,13.6 L333.8,13.6 Z" id="Shape"></path>
                </g>
                <path d="M430.1,161.3 C428.8,160.7 427.5,160.4 426.2,160.4 C424.4,160.4 423.1,161 422.1,162.1 C421.1,163.3 420.4,165 419.9,167.2 L418.7,172.5 L426.5,172.5 L425.4,177 L417.6,177 L409.1,216.5 L403.7,216.5 L412.2,177 L406.5,177 L407.5,172.5 L413.2,172.5 L414.5,166.4 C416,159.4 420,155.9 426.5,155.9 C428,155.9 429.4,156.1 430.8,156.5 L430.1,161.3 L430.1,161.3 L430.1,161.3 Z M445.9,178.2 L445.8,178.2 C444.5,177.4 443.2,177.1 442,177.1 C439.7,177.1 437.6,178.5 435.5,181.2 C433.5,183.9 432,187.3 431.2,191.3 L428.1,205.7 L422.8,205.7 L427.4,183.8 C428.3,179.3 429,175.6 429.2,172.7 L434.4,172.7 C434.1,175.2 433.8,177.6 433.5,180 L433.6,180 C436.6,174.6 439.8,171.9 443.3,171.9 C444.2,171.9 445.4,172.1 446.7,172.4 L445.9,178.2 L445.9,178.2 L445.9,178.2 Z M449.4,192 L449.3,192.7 L449.3,193.3 C449.3,195.9 450,198 451.5,199.5 C453,201 455,201.8 457.7,201.8 C460.9,201.8 464.3,200.7 467.7,198.5 L466.7,203.7 C463.6,205.4 460.4,206.3 457,206.3 C452.8,206.3 449.5,205.1 447.3,202.7 C445.1,200.3 443.9,196.9 443.9,192.7 C443.9,186.9 445.7,182 449.2,177.9 C452.7,173.8 457,171.8 461.9,171.8 C465.1,171.8 467.7,172.6 469.5,174.2 C471.4,175.8 472.3,177.9 472.3,180.3 C472.3,184.3 470.4,187.2 466.7,189.1 C462.9,191 457.2,191.9 449.4,192 L449.4,192 L449.4,192 Z M449.9,187.6 C461.2,187.6 466.9,185.3 466.9,180.6 C466.9,179.2 466.4,178.2 465.4,177.4 C464.4,176.6 463.1,176.3 461.4,176.3 C458.9,176.3 456.5,177.3 454.3,179.4 C452.1,181.5 450.6,184.2 449.9,187.6 L449.9,187.6 L449.9,187.6 Z M478.2,192 L478.1,192.7 L478.1,193.3 C478.1,195.9 478.8,198 480.3,199.5 C481.8,201 483.8,201.8 486.5,201.8 C489.7,201.8 493.1,200.7 496.5,198.5 L495.5,203.7 C492.4,205.4 489.2,206.3 485.8,206.3 C481.6,206.3 478.3,205.1 476.1,202.7 C473.9,200.3 472.7,196.9 472.7,192.7 C472.7,186.9 474.5,182 478,177.9 C481.5,173.8 485.8,171.8 490.7,171.8 C493.9,171.8 496.5,172.6 498.3,174.2 C500.2,175.8 501.1,177.9 501.1,180.3 C501.1,184.3 499.2,187.2 495.5,189.1 C491.8,191 486,191.9 478.2,192 L478.2,192 L478.2,192 Z M478.7,187.6 C490,187.6 495.7,185.3 495.7,180.6 C495.7,179.2 495.2,178.2 494.2,177.4 C493.2,176.6 491.9,176.3 490.2,176.3 C487.7,176.3 485.3,177.3 483.1,179.4 C481,181.5 479.5,184.2 478.7,187.6 L478.7,187.6 L478.7,187.6 Z" id="Shape" fill="#231F20"></path>
            </g>
        </g>
    </g>
</svg>