<?xml version="1.0" encoding="UTF-8" standalone="no"?>
<svg width="300px" height="200px" viewBox="0 0 1044 696" version="1.1" xmlns="http://www.w3.org/2000/svg" xmlns:xlink="http://www.w3.org/1999/xlink" xmlns:sketch="http://www.bohemiancoding.com/sketch/ns">
    <g id="Page-1" stroke="none" stroke-width="1" fill="none" fill-rule="evenodd" sketch:type="MSPage">
        <rect id="BG" fill="#FFFFFF" sketch:type="MSShapeGroup" x="0" y="0" width="1044" height="696"></rect>
        <g id="EET-Group" sketch:type="MSLayerGroup" transform="translate(181.000000, 230.000000)">
            <path d="M0,0 L35.7,0 C17.24,1.49 1.37,17.41 0,35.89 L0,0 L0,0 Z" id="Shape" fill="#FFFFFF" sketch:type="MSShapeGroup"></path>
            <path d="M35.7,0 L199.59,0 C202.02,0.24 204.42,0.78 206.77,1.45 C166.14,5.82 126.51,19.79 92.49,42.5 C51.81,69.37 19.18,108.28 0,153.12 L0,35.89 C1.37,17.41 17.24,1.49 35.7,0 L35.7,0 Z" id="Shape" fill="#000000" sketch:type="MSShapeGroup"></path>
            <path d="M284.5,10.5 C304.75,10.5 325,10.49 345.25,10.5 L345.25,26.49 C330.92,26.51 316.59,26.5 302.26,26.5 C302.24,32.17 302.25,37.83 302.26,43.5 L327.74,43.5 C327.76,48.91 327.75,54.33 327.75,59.75 C319.25,59.76 310.75,59.75 302.25,59.76 L302.25,81.24 C317.08,81.26 331.92,81.24 346.75,81.25 C346.75,86.67 346.76,92.09 346.74,97.5 C326,97.5 305.25,97.51 284.5,97.5 C284.49,68.5 284.5,39.5 284.5,10.5 L284.5,10.5 Z" id="Shape" fill="#000000" sketch:type="MSShapeGroup"></path>
            <path d="M357.5,10.5 C377.75,10.5 398,10.49 418.25,10.5 L418.25,26.5 C404,26.51 389.75,26.49 375.5,26.51 L375.5,43.49 C384,43.5 392.49,43.5 400.99,43.49 C401.01,48.91 401,54.33 400.99,59.76 C392.5,59.75 384,59.75 375.51,59.75 C375.5,66.92 375.5,74.08 375.51,81.25 C390.26,81.25 405,81.24 419.75,81.25 L419.75,97.5 C399,97.51 378.25,97.5 357.5,97.5 C357.49,68.5 357.5,39.5 357.5,10.5 L357.5,10.5 Z" id="Shape" fill="#000000" sketch:type="MSShapeGroup"></path>
            <path d="M426.75,10.5 C449.33,10.49 471.92,10.5 494.5,10.5 L494.5,26.5 C486.25,26.51 478,26.49 469.75,26.51 C469.74,50.17 469.77,73.84 469.74,97.51 C463.66,97.5 457.58,97.5 451.5,97.5 C451.49,73.84 451.51,50.17 451.49,26.5 C443.25,26.49 435,26.51 426.75,26.5 L426.75,10.5 L426.75,10.5 Z" id="Shape" fill="#000000" sketch:type="MSShapeGroup"></path>
            <path d="M132.52,47.53 C160.22,27.96 193.51,16.14 227.49,15.04 C232.47,21.63 235.84,29.62 235.99,37.95 C236.02,90.96 235.98,143.98 236.01,196.99 C236.02,207.44 231.49,217.72 223.97,224.93 C217.4,231.37 208.54,235.26 199.39,236 L37.77,236 C37.13,235.92 35.86,235.75 35.22,235.67 C36.84,208.19 42.2,180.87 51.88,155.07 C67.69,112.54 95.18,73.75 132.52,47.53 L132.52,47.53 Z" id="Shape" fill="#0059A0" sketch:type="MSShapeGroup"></path>
            <path d="M288.68,155.7 C294.27,146.65 304.31,140.56 314.93,139.79 C321.57,139.39 328.43,139.76 334.67,142.26 C341.22,144.96 346.16,150.45 349.59,156.51 C345.54,158.81 341.41,160.96 337.29,163.12 C334.79,159.29 331.71,155.51 327.26,153.89 C319.14,151.01 309.08,152.48 303.15,159.08 C296.39,166.62 295.08,177.34 295.31,187.06 C295.71,196.91 298.61,207.92 307.34,213.63 C315.95,218.55 328.37,217.87 335.28,210.3 C338.73,206.43 339.82,201.07 339.81,196.02 C334.79,195.97 329.77,196.02 324.75,195.99 C324.74,192.08 324.74,188.17 324.76,184.25 C334.17,184.24 343.58,184.25 352.99,184.24 C353.12,193.85 353.52,204.02 348.81,212.75 C343.68,223.47 331.61,229.44 320.01,229.27 C310.82,229.77 301.43,226.65 294.61,220.41 C286.53,212.91 282.47,201.94 281.46,191.14 C280.48,179.02 281.93,166.12 288.68,155.7 L288.68,155.7 Z" id="Shape" fill="#0059A0" sketch:type="MSShapeGroup"></path>
            <path d="M472.41,140.65 C482.21,138.47 493.17,139.61 501.52,145.5 C511.04,151.84 516.36,162.91 518.09,173.96 C519.98,186.4 518.81,199.7 512.8,210.92 C507.84,220.23 498.56,227.19 488.08,228.83 C479.46,230.07 470.16,229.09 462.69,224.31 C454.18,219.18 448.78,210.11 446.29,200.67 C442.97,187.92 443.54,174 448.61,161.78 C452.82,151.65 461.58,143.2 472.41,140.65 L472.41,140.65 Z" id="Shape" fill="#0059A0" sketch:type="MSShapeGroup"></path>
            <path d="M366,141 C379.03,141 392.05,140.99 405.08,141 C413.29,141.21 422.12,144.02 427.2,150.85 C432.43,157.83 432.86,167.22 431.28,175.5 C429.66,183.91 422.78,190.52 414.72,192.95 C420.68,204.6 426.58,216.28 432.43,227.98 C427.2,228.02 421.98,227.99 416.75,228 C411.19,216.92 405.68,205.83 400.12,194.76 C393.16,194.59 386.21,195.16 379.25,195.01 L379.25,227.99 C374.83,228 370.42,228 366,228 L366,141 L366,141 Z" id="Shape" fill="#0059A0" sketch:type="MSShapeGroup"></path>
            <path d="M533.24,141.01 C537.83,140.99 542.41,141 547,141 C547,157.67 547.01,174.33 546.99,191 C547.03,198.02 548.27,205.58 553.12,210.98 C557.54,215.84 564.69,217.09 570.95,216.17 C575.98,215.57 580.98,212.94 583.56,208.44 C587.85,201.44 587.56,192.92 587.5,185.01 C587.5,170.34 587.5,155.68 587.49,141.01 C592.08,140.99 596.66,141 601.25,141.01 C601.26,157.66 601.24,174.31 601.26,190.97 C601.42,199.7 600.13,208.86 595.27,216.31 C590.44,223.75 581.79,228 573.14,228.99 C563.09,230.04 551.9,228.91 544.08,221.87 C535.89,214.78 533.53,203.42 533.28,193.06 C533.2,175.71 533.27,158.36 533.24,141.01 L533.24,141.01 Z" id="Shape" fill="#0059A0" sketch:type="MSShapeGroup"></path>
            <path d="M617.5,141.01 C630.02,140.99 642.55,141 655.08,141 C662.9,141.12 671.25,143.46 676.61,149.47 C681.11,154.32 682.81,161.04 683,167.51 L683,168.98 C682.67,174.15 681.73,179.45 678.84,183.86 C674.55,191.12 666.14,194.72 658.03,195.47 C648.96,196.11 639.85,195.57 630.76,195.76 C630.74,206.5 630.76,217.25 630.75,227.99 C626.33,228 621.91,228.01 617.5,227.99 L617.5,141.01 L617.5,141.01 Z" id="Shape" fill="#0059A0" sketch:type="MSShapeGroup"></path>
            <path d="M379.25,153.25 C387.4,153.3 395.54,153.16 403.68,153.32 C409.25,153.41 415.35,156.11 417.33,161.68 C419.09,167.03 418.82,173.62 415.06,178.09 C412.11,181.51 407.44,182.64 403.1,182.72 C395.15,182.79 387.2,182.73 379.26,182.75 C379.25,172.91 379.25,163.08 379.25,153.25 L379.25,153.25 Z" id="Shape" fill="#FFFFFF" sketch:type="MSShapeGroup"></path>
            <path d="M474.37,153.51 C481.44,151.32 489.95,152.31 495.46,157.59 C500.04,161.62 502.47,167.47 503.76,173.31 C505.58,181.93 505.33,191.03 502.66,199.44 C500.71,205.47 496.91,211.13 491.26,214.23 C482.77,218.79 471.1,216.56 465.31,208.71 C458.37,199.41 457.26,186.98 458.89,175.81 C460.17,166.6 464.98,156.64 474.37,153.51 L474.37,153.51 Z" id="Shape" fill="#FFFFFF" sketch:type="MSShapeGroup"></path>
            <path d="M630.76,153.26 C638.84,153.34 646.94,153.07 655.02,153.39 C660.74,153.63 666.63,157.03 668.23,162.79 C669.69,168.03 669.45,174.39 665.74,178.67 C662.79,181.91 658.28,183.3 654,183.26 C646.25,183.24 638.5,183.26 630.76,183.24 C630.75,173.24 630.75,163.25 630.76,153.26 L630.76,153.26 Z" id="Shape" fill="#FFFFFF" sketch:type="MSShapeGroup"></path>
        </g>
    </g>
</svg>