<svg height="400" viewBox="0 0 600 400" width="600" xmlns="http://www.w3.org/2000/svg"><g fill="#000000"><path d="m49.066 145.195 55.498-.024 19.191-.07c13.45-.043 24.583-1.419 24.684 16.05.086 14.802.02 29.669-.004 44.475l-.043 17.228c-.066 12.449.698 21.429-14.902 21.823l-59.29.006-17.742.07c-5.955.03-14.51.891-19.155-3.459-2.84-2.66-3.777-7.16-3.798-10.93-.081-14.876-.04-29.759-.05-44.639l-.005-16.663c0-4.351-.145-8.853.48-13.14.447-3.069.67-4.379 2.9-6.632 3.724-3.764 7.387-3.969 12.236-4.095m1.661 75.795c9.035.188 19.382-.237 28.058.127 2.238 5.495 5.519 10.696 11.243 13.081 4.967 2.069 11.046 1.185 15.414-1.899 15.103-16.008-27.8-30.033-37.6-34.986-5.548-2.804-11.431-5.593-17.16-7.959.193 10.585-.159 21.175.045 31.636m73.126-23.345c2.253.952 4.996 2.075 7.122 3.246a858 858 0 0 0 -.026-31.598l-28.1.081c-2.795-8.334-9.809-15.709-19.298-14.288-3.78.69-6.753 1.544-9.117 4.826-5.295 7.352 3.736 15.162 9.607 18.706 12.48 7.531 26.724 12.628 39.812 19.027"/><path d="m245.266 170.117q.4-.02.801-.029c21.393-.471 19.171 5.296 19.171 22.99l-.023 29.081c-8.007 3.653-15.666 7.323-23.203 11.889a28.4 28.4 0 0 1 -3.986 2.021c-3.369-.755-4.916-1.182-7.205-3.756-1.778-2.615-1.688-5.301-1.709-8.409l-.034-17.756c-.005-3.268-.102-7.005.149-10.227.791-10.121 16.597-8.507 23.85-8.383l-.085-8.748c-6.477.334-14.614-.185-21.471.007.157-2.644.12-5.895-.016-8.534zm-4.223 57.662c3.932-.092 8.021-.129 11.938-.322.272-10.22-.036-20.621.042-30.863-3.792-.038-7.94-.003-11.707-.118-.865 2.913-.234 26.532-.273 31.303"/><path d="m195.58 153.331a36 36 0 0 1 3.432-.139c9.308.088 18.052 4.071 18.157 14.618.025 2.573.03 5.1-.029 7.687l-12.083-.008q.085-6.431-.015-12.862c-3.579.132-8.447-.033-12.089-.086.113 2.446-.057 5.97-.066 8.516a527 527 0 0 0 .209 19.685c5.732-.131 14.747-.819 19.657 2.064 1.213.712 3.646 2.881 3.756 4.426.662 9.285.427 18.835.23 28.148-.142 6.689-8.291 10.497-13.998 11.308-10.916 1.017-22.526-2.553-21.659-15.105.141-2.039-.036-4.705-.056-6.799q5.984.005 11.966-.08-.083 6.514.099 13.027l11.956-.087c-.115-9.282-.032-18.737-.032-28.031-6.768-.034-23.004 1.425-23.702-8.002-.651-8.801-.452-18.356.012-27.203.364-6.923 8.488-10.058 14.255-11.077"/><path d="m435.644 169.753a41 41 0 0 1 3.433-.152c5.269.012 10.596 1.146 14.4 5.059a12.85 12.85 0 0 1 3.318 5.916c.953 3.804.511 22.041.474 26.997-5.942-.055-18.68.437-23.878-.113.345 5.513.061 14.612.048 20.389 3.371-.293 8.363-.169 11.844-.174l-.1-8.471q6.043.029 12.081.249c.087 3.609-.069 7.13-2.03 10.275-5.804 9.31-20.238 8.776-28.531 3.691q-.63-.433-1.217-.925c-1.351-1.146-3.643-3.577-3.853-5.341-1.34-11.236.322-24.283-.535-35.449l-.033-.397c3.931-.014 8.33-.398 12.341-.52.025 2.671.168 6.539-.149 9.086 8.03-3.588 16.118-7.975 24.055-11.344-7.084-2.958-17.053-7.995-24.024-11.533.241 2.568.187 6.584.23 9.264-3.47.28-8.719.288-12.271.394-.088-11.064 3.395-14.616 14.397-16.901"/><path d="m502.168 194.967c4.049.851 8.296 1.558 12.251 2.69q.098 15.05.032 30.1c3.796-.128 7.981-.061 11.807-.08-.165-8.518-.164-18.438.061-26.931 3.905 1.679 8.081 2.945 12.138 4.68l.07 24.829c.006 4.803.28 12.549-.636 16.934-2.998 7.131-14.975 6.021-21.207 5.984-3.897-.023-7.828-.012-11.729-.014-.121-2.714-.117-5.684-.17-8.42q10.711-.125 21.423-.095l-.026-8.128c-5.067.136-10.602.222-15.579-.582-10.421-1.684-8.464-12.308-8.437-20.11z"/><path d="m403.691 192.652c1.136-.177 4.235-.218 5.523-.27l.016.609c.23 9.253-.116 18.583.087 27.887.572 6.989-.194 13.993-8.745 15.064-8.527 1.067-18.686.574-27.471.548.355-8.052-.074-18.759.102-27.266.04-4.157-.107-8.67-.173-12.854 2.763-.102 9.068-1.193 12.19-1.586q.115 16.534.05 33.067c3.461-.28 8.338-.171 11.903-.196-.131-11.35.067-22.988-.026-34.419z"/><path d="m294.82 170.119c4.571-.26 11.845-.23 15.403 3.002 3.833 3.482 3.063 9.511 3.1 14.27.045 5.781-.167 11.603.11 17.421-3.129 1.167-9.07 2.755-12.411 3.749.238-9.456-.034-19.976-.063-29.532-2.576-.06-9.248-.39-11.47-.052-.489.765-.352 1.812-.352 2.781a1569 1569 0 0 0 .067 30.757c-3.671 1.482-8.457 3.336-12.231 4.358.142-14.957.36-31.8-.022-46.744 4.446.359 13.204.042 17.869-.01"/><path d="m349.136 153.778 11.961-.038c.461 12.713.171 27.053.175 39.885-3.74.813-8.362 1.798-12.118 2.253q.08-8.551-.001-17.103c-3.795.143-8.12.041-11.953.024l.091 7.941q.108 5.961.005 11.924c-4.155 1.047-8.112 1.838-12.283 3.042.07-7.357-.049-14.758-.027-22.099.032-10.925 16.718-10.049 24.178-9.345q.091-8.241-.028-16.484"/><path d="m359.351 198.763c.73-.121.776-.184 1.496.053.733 1.144.429 34.251.432 37.717-9.361-.366-18.915.628-28.201-.646-10.248-1.407-8.072-14.076-8.15-21.799l.092-7.896c2.833-.441 8.997-2.095 12.188-2.813q.194 12.215.034 24.431c3.278-.255 8.529-.129 11.955-.157-.401-8.403-.009-18.448-.138-27.097 3.433-.446 6.887-1.146 10.292-1.793"/><path d="m373.081 153.805 12.151-.083q.067 8.265.008 16.529l7.385-.108c15.346-.158 16.803 3.383 16.702 17.39-3.171.147-9.058 1.234-12.035.727-.13-3.035-.082-6.301-.089-9.356-3.84-.19-8.055-.12-11.926-.13q-.012 5.66.075 11.319c-4.039.384-8.01 1.144-12.163 1.481-.324-12.456.166-25.252-.108-37.769"/><path d="m519.32 169.499c5.61.046 11.369.929 15.466 5.141a12 12 0 0 1 3.003 5.179c1.11 3.874.728 16.188.706 20.993-2.782-1.276-9.352-3.517-12.288-4.392.162-4.21.058-9.228.063-13.49l-.116-3.876c-4.174-.333-7.489-.335-11.672-.249q-.047 7.09.028 14.181c-4.055-.933-8.247-1.583-12.355-2.273-.069-5.074-.538-11.097 2.866-15.143 3.754-4.463 8.833-5.57 14.299-6.071"/><path d="m469.093 191.293c4.322.302 7.947.377 12.279.965-.1 10.087.144 20.277.035 30.358-.043 3.903.206 9.841-.076 13.592l-.555.278c-3.784-.065-7.708-.013-11.505-.014-.429-14.776.428-30.607-.178-45.179"/><path d="m311.423 210.161c1.116-.144.931-.304 1.695.15.257 2.846.137 6.608.138 9.558l-.007 16.628c-3.511-.072-7.162-.033-10.685-.046-.395.008-.728-.099-1.121-.185-.951-1.164-.587-20.082-.504-22.887 2.936-1.104 7.517-2.481 10.484-3.218"/><path d="m479.862 170.366c3.122-.335 10.15-.117 13.484-.101l.026 8.504c-3.911-.204-7.916.157-11.874-.092.024 2.433-.055 5.03-.086 7.477-.048.842.084.475-.373 1.15-2.08.665-8.757-.363-11.779-.367-.411-9.709-.667-15.251 10.602-16.571"/><path d="m549.027 173.923c3.234-4.571 8.356-6.87 13.288-3.247a9.64 9.64 0 0 1 3.861 6.298c1.567 10.215-12.27 14.756-17.455 4.827-1.174-2.36-.73-5.547.306-7.878m1.856 6.264c1.129 2.31 2.067 3.48 4.54 4.392 1.686.622 4.53.169 5.741-1.207-3.239-.885-2.722-3.502-5.029-4.299-1.422.866.257 3.457-1.99 4.099l-.43-.314c-.979-2.438-.595-7.099-.264-9.763 4.244-.494 9.026-1.316 8.382 4.522-.805.55-1.635.945-1.934 1.809.401 2.109 1.108 1.211 1.265 3.946 2.896-2.067 3.379-6.563 1.262-9.365-2.249-2.813-6.334-3.504-9.217-1.21-.883.88-1.198 1.173-1.896 2.258-.674 2.003-.695 3.019-.43 5.132m5.779-5.528c-.641.43-.864.495-1.132 1.22.562 1.185 2.238 1.071 3.429 1.136l.771-.517c-.078-1.403-1.891-1.699-3.068-1.839"/><path d="m553.451 173.095c4.244-.494 9.026-1.316 8.382 4.522-.805.55-1.635.945-1.934 1.809.401 2.109 1.108 1.211 1.265 3.946-3.239-.885-2.722-3.502-5.029-4.299-1.422.866.257 3.457-1.99 4.099l-.43-.314c-.979-2.438-.595-7.099-.264-9.763m5.508 3.92.771-.517c-.078-1.403-1.891-1.699-3.068-1.839-.641.43-.864.495-1.132 1.22.562 1.185 2.238 1.071 3.429 1.136"/></g><path d="m553.209 172.797c2.883-2.294 6.968-1.603 9.217 1.21-.014 1.281.193 2.774-.593 3.61.644-5.838-4.138-5.016-8.382-4.522z" fill="#fefdfe" fill-opacity=".031"/><path d="m548.721 181.801c-1.174-2.36-.73-5.547.306-7.878.555 1.003.249.756 1.16 1.293.373-.041.771-.062 1.126-.161-.674 2.003-.695 3.019-.43 5.132-1.076.297-1.574.584-2.162 1.614" fill="#1c1a1b"/><path d="m287.775 218.013c.632-.063.316-.101.951.231.761 1.921.478 15.217.47 18.237l-10.929-.038-.563-.12c-1.28-1.672-.836-11.581-.811-14.27 3.624-1.269 7.254-2.721 10.882-4.04" fill="#1c1a1b"/><path d="m264.567 227.434c.891 1.052.572 7.269.557 9.074-5.412-.123-11.22-.018-16.663-.018l-.393-.474c.93-1.356 14.006-7.406 16.499-8.582" fill="#1c1a1b"/></svg>