<?xml version="1.0" encoding="UTF-8" standalone="no"?>
<svg width="300px" height="86px" viewBox="0 0 1795 512" version="1.1" xmlns="http://www.w3.org/2000/svg" xmlns:xlink="http://www.w3.org/1999/xlink" xmlns:sketch="http://www.bohemiancoding.com/sketch/ns">
    <g id="Page-1" stroke="none" stroke-width="1" fill="none" fill-rule="evenodd" sketch:type="MSPage">
        <g id="logo_stort" sketch:type="MSLayerGroup" transform="translate(162.000000, 106.000000)">
            <path d="M27.52,0.71 C29.32,0.3 31.15,0.04 33,0 L285,0 C293.74,0.34 302.18,4.5 308.08,10.93 C314.15,17.35 317.31,26.2 317.27,34.99 C317.27,103.65 317.29,172.3 317.26,240.96 C317.22,250.19 313.59,259.42 306.87,265.82 C300.41,272.39 291.18,275.8 282.03,275.72 C203.01,275.75 123.99,275.73 44.97,275.73 C37.81,275.69 30.41,276.24 23.58,273.65 C10.86,269.19 1.25,256.61 1,243.03 C1.01,172.68 0.99,102.33 1,31.98 C1.55,17.17 13.11,3.82 27.52,0.71 L27.52,0.71 Z" id="Shape" fill="#201E1E" sketch:type="MSShapeGroup"></path>
            <path d="M420.8,32.81 C432.99,23.6 448.92,20.38 463.94,21.75 C476.49,23.01 489.18,27.64 498.16,36.76 C503.57,42.1 507.14,49.42 507.2,57.1 C507.39,65.82 507.22,74.55 507.27,83.27 C496.09,83.28 484.91,83.28 473.73,83.27 C473.72,71.27 473.72,59.27 473.73,47.27 C462.76,47.25 451.8,47.34 440.84,47.22 C440.6,73.48 440.8,99.74 440.74,126 C452.84,126.02 464.95,125.97 477.06,126.02 C486.93,126.61 497.26,130.46 503.37,138.57 C506.33,142.37 507.33,147.25 507.28,151.98 C507.28,173.31 507.27,194.65 507.28,215.99 C507.18,220.59 506.84,225.35 504.75,229.54 C500.49,238.89 491.79,245.46 482.52,249.39 C465.84,256.24 446.25,256 429.86,248.41 C418.62,243.23 408.08,233.07 407.48,220.04 C407.47,210.85 407.49,201.66 407.48,192.48 C418.56,192.47 429.65,192.5 440.73,192.46 C440.74,204.46 440.74,216.47 440.73,228.47 C451.69,228.56 462.65,228.34 473.6,228.59 C473.88,207.39 473.64,186.19 473.72,164.99 C473.64,159.87 473.93,154.74 473.54,149.63 C462.7,149.88 451.85,149.65 441,149.75 C431.43,150.06 421.51,147.13 414.32,140.66 C410.23,136.95 407.27,131.66 407.46,126.03 C407.51,102.39 407.45,78.76 407.5,55.13 C408.07,46.09 413.77,38.15 420.8,32.81 L420.8,32.81 Z" id="Shape" fill="#201E1E" sketch:type="MSShapeGroup"></path>
            <path d="M871.48,23.48 C882.56,23.47 893.64,23.51 904.73,23.46 C904.76,60.27 904.7,97.08 904.76,133.9 C893.61,135.74 882.59,138.33 871.43,140.08 C871.53,124.3 871.46,108.51 871.47,92.73 C860.49,92.74 849.5,92.73 838.52,92.73 C838.5,111 838.55,129.26 838.49,147.52 C827.28,150.08 816.14,152.91 804.99,155.7 C805.03,134.77 804.95,113.84 805.04,92.91 C805.06,87.69 807.37,82.64 811.06,78.99 C817.57,72.43 826.92,69.29 836.02,69 L871.48,69 L871.48,23.48 L871.48,23.48 Z" id="Shape" fill="#201E1E" sketch:type="MSShapeGroup"></path>
            <path d="M937.67,23.58 C948.74,23.3 959.82,23.64 970.9,23.4 C971.13,38.6 970.93,53.8 971,69 C981.64,69 992.28,69.01 1002.93,68.99 C1010.75,68.64 1018.75,70.36 1025.52,74.36 C1031.43,77.93 1036.76,83.76 1037.24,90.95 C1037.4,99.46 1037.11,107.99 1037.38,116.51 C1026.27,117.73 1015.11,118.53 1004,119.77 L1004,92.74 C993,92.73 982,92.73 971,92.74 L971,123.66 C959.89,125.11 948.81,126.7 937.74,128.38 C937.67,93.45 937.8,58.51 937.67,23.58 L937.67,23.58 Z" id="Shape" fill="#201E1E" sketch:type="MSShapeGroup"></path>
            <path d="M128.77,28.78 C147.3,22.27 169.36,29.29 181.15,44.88 C186.19,51.16 189.45,58.63 191.69,66.31 C210.78,66.21 229.87,66.33 248.97,66.25 C255.79,65.83 262.64,66.05 269.48,66 C269.5,95.27 269.44,124.55 269.51,153.82 C245.44,142.81 221.32,131.89 197.28,120.79 C177.57,111.91 157.58,103.38 139.26,91.8 C130.12,85.87 121.1,79.24 114.69,70.3 C110.22,64.12 107.43,56.12 109.36,48.51 C111.35,38.86 119.71,31.73 128.77,28.78 L128.77,28.78 Z" id="Shape" fill="#FDFDFC" sketch:type="MSShapeGroup"></path>
            <path d="M1440.07,66.13 C1451.9,63.13 1465.01,70.17 1469.35,81.5 C1472.35,89.26 1471.52,98.61 1466.63,105.43 C1462.05,112.1 1454.13,116.46 1445.99,116.32 C1436.89,116.68 1427.98,111.39 1423.6,103.47 C1419.91,97.06 1419.3,89 1421.9,82.09 C1424.71,74.13 1431.84,67.94 1440.07,66.13 L1440.07,66.13 Z" id="Shape" fill="#201E1E" sketch:type="MSShapeGroup"></path>
            <path d="M1087.6,75.55 C1102,66.84 1119.94,65.01 1136.16,68.84 C1147.97,71.76 1159.61,78.17 1166.06,88.81 C1168.87,93.36 1170.05,98.73 1170.01,104.05 C1169.93,126.89 1170.13,149.74 1169.9,172.59 C1147.85,172.43 1125.79,172.55 1103.73,172.53 C1103.74,191.18 1103.73,209.83 1103.74,228.48 C1114.65,228.49 1125.57,228.46 1136.49,228.49 C1136.51,220.56 1136.38,212.62 1136.56,204.68 C1147.7,204.78 1158.85,204.7 1170,204.73 C1169.65,212.78 1171.17,221.26 1167.87,228.89 C1164.14,237.62 1156.43,244.05 1148.05,248.14 C1135.38,254.24 1120.7,255.69 1106.95,253.05 C1096.82,251.08 1086.99,246.67 1079.53,239.44 C1074.16,234.04 1070.18,226.78 1070.26,219.02 C1070.26,188.45 1070.29,157.88 1070.24,127.31 C1081.49,126.74 1092.74,126.12 1104,125.99 L1104,151.2 C1125.75,140.7 1147.5,130.2 1169.22,119.64 C1147.62,108.83 1125.71,98.64 1104.06,87.93 C1103.93,96.27 1104.02,104.62 1104,112.96 C1092.74,113.46 1081.47,113.76 1070.21,114.37 C1070.39,109.43 1070.07,104.49 1070.38,99.56 C1071.56,89.23 1078.98,80.77 1087.6,75.55 L1087.6,75.55 Z" id="Shape" fill="#201E1E" sketch:type="MSShapeGroup"></path>
            <path d="M1307.97,77.94 C1320.54,68.72 1336.86,65.68 1352.16,67.41 C1363.72,68.8 1375.22,73.17 1383.83,81.17 C1389.47,86.59 1393.83,93.98 1393.74,102.01 C1393.74,119.06 1393.71,136.1 1393.76,153.15 C1383.66,149.2 1373.57,145.19 1363.2,141.98 C1362.25,141.44 1360.11,141.53 1360.48,139.94 C1360.47,124.21 1360.48,108.47 1360.48,92.74 C1349.49,92.73 1338.51,92.74 1327.52,92.73 C1327.54,105.82 1327.46,118.9 1327.57,131.98 C1316.41,129.54 1305.27,127.01 1294,125.17 C1294.1,117.08 1293.77,108.97 1294.18,100.89 C1294.67,91.52 1300.66,83.39 1307.97,77.94 L1307.97,77.94 Z" id="Shape" fill="#201E1E" sketch:type="MSShapeGroup"></path>
            <path d="M547.25,69.02 C567.82,68.98 588.4,69.01 608.98,69 C619.18,69.37 629.87,73.39 636.11,81.8 C638.7,85.29 639.88,89.65 639.74,93.96 C639.7,133.55 639.78,173.14 639.7,212.73 C614.3,224.06 589.51,236.83 565.8,251.38 C554.09,250.52 540.53,241.99 540.01,229.05 C539.99,199.68 540.01,170.32 540,140.95 C539.87,134.44 543.81,128.57 548.86,124.76 C555.75,119.6 564.47,117.19 573.03,117.26 C584.1,117.27 595.18,117.27 606.26,117.26 C606.27,109.09 606.27,100.92 606.26,92.75 C586.59,92.73 566.92,92.72 547.25,92.75 C547.27,84.84 547.28,76.93 547.25,69.02 L547.25,69.02 Z" id="Shape" fill="#201E1E" sketch:type="MSShapeGroup"></path>
            <path d="M672.39,69.12 C694.6,68.83 716.82,69.1 739.03,68.99 C748.13,68.72 757.5,71.48 764.55,77.34 C769.16,81.15 772.4,86.9 772.29,92.99 C772.23,116.93 772.36,140.87 772.22,164.81 C760.96,167.84 749.91,171.62 738.71,174.83 C738.76,147.48 738.68,120.13 738.75,92.78 C727.83,92.68 716.91,92.76 706,92.74 L706,186.14 C694.72,190.11 683.55,194.37 672.46,198.83 C672.45,155.59 672.59,112.36 672.39,69.12 L672.39,69.12 Z" id="Shape" fill="#201E1E" sketch:type="MSShapeGroup"></path>
            <path d="M1212.05,76.09 C1218.67,71.32 1226.88,68.88 1235.02,68.99 C1246.43,69.02 1257.85,68.99 1269.28,69 C1269.22,76.93 1269.38,84.86 1269.19,92.79 C1258.21,92.69 1247.24,92.73 1236.26,92.76 C1236.29,100.91 1236.26,109.06 1236.28,117.21 C1225.1,116.05 1213.88,115.31 1202.68,114.39 C1202.81,106.94 1202.63,99.49 1202.76,92.05 C1202.95,85.57 1206.93,79.8 1212.05,76.09 L1212.05,76.09 Z" id="Shape" fill="#201E1E" sketch:type="MSShapeGroup"></path>
            <path d="M1439.45,73.65 C1446.98,70.67 1456.2,73.72 1460.77,80.32 C1465.27,86.51 1465.25,95.48 1460.7,101.65 C1456.75,107.1 1449.71,110.28 1443.01,109.16 C1436.02,108.19 1429.87,102.79 1428.04,95.97 C1425.89,88.89 1428.6,80.42 1434.82,76.28 C1435.24,85.6 1434.88,94.95 1435,104.28 C1437.08,104.27 1439.16,104.27 1441.27,104.27 C1441.27,100.52 1441.28,96.78 1441.25,93.03 C1442.51,93.01 1443.79,93 1445.09,92.99 C1447.08,96.67 1448.89,100.46 1451.09,104.03 C1453.45,104.61 1455.98,104.18 1458.43,104.21 C1456.24,100.46 1453.99,96.75 1451.83,93 C1454.42,92.32 1457.63,91.56 1458.53,88.63 C1459.67,84.64 1459.22,79.02 1454.93,77.08 C1448.79,75.22 1442.22,77.15 1436.06,75.84 C1436.33,74.29 1438.29,74.27 1439.45,73.65 L1439.45,73.65 Z" id="Shape" fill="#FDFDFC" sketch:type="MSShapeGroup"></path>
            <path d="M1441.26,81.49 C1444.47,81.59 1447.75,81.22 1450.92,81.99 C1453.07,83 1452.82,86.25 1450.91,87.36 C1447.72,87.62 1444.52,87.41 1441.35,87.56 C1441.28,85.53 1441.26,83.51 1441.26,81.49 L1441.26,81.49 Z" id="Shape" fill="#FDFDFC" sketch:type="MSShapeGroup"></path>
            <path d="M48.01,121.91 C68.15,131.06 88.25,140.33 108.38,149.52 C127.4,158.52 146.95,166.44 165.43,176.56 C175.5,182.1 185.39,188.18 193.95,195.91 C199.71,201.22 205.05,207.45 207.4,215.07 C210.13,223.41 207.56,233.15 201.21,239.18 C195.86,244.69 188.4,247.68 180.92,248.85 C165.38,251.34 148.83,245.34 138.37,233.6 C132.14,226.8 128.06,218.29 125.61,209.46 C99.65,209.51 73.69,209.47 47.73,209.48 C48.14,180.29 47.96,151.1 48.01,121.91 L48.01,121.91 Z" id="Shape" fill="#FDFDFC" sketch:type="MSShapeGroup"></path>
            <path d="M1202.71,127.23 C1213.92,127.69 1225.09,128.75 1236.25,129.79 C1236.31,170.62 1236.27,211.45 1236.27,252.27 C1225.09,252.28 1213.91,252.28 1202.73,252.27 C1202.71,210.59 1202.74,168.91 1202.71,127.23 L1202.71,127.23 Z" id="Shape" fill="#201E1E" sketch:type="MSShapeGroup"></path>
            <path d="M1003.97,132.83 C1015.05,131.59 1026.15,130.54 1037.27,129.66 C1037.27,163.09 1037.3,196.52 1037.26,229.95 C1036.69,239.47 1028.33,246.44 1019.94,249.54 C1013,252.41 1005.4,252.46 998.03,252.27 C977.92,252.27 957.83,252.28 937.73,252.27 C937.7,215.39 937.76,178.51 937.7,141.63 C948.74,139.66 959.89,138.29 971,136.75 L971,228.48 L1004,228.48 C1003.98,196.6 1004.04,164.71 1003.97,132.83 L1003.97,132.83 Z" id="Shape" fill="#201E1E" sketch:type="MSShapeGroup"></path>
            <path d="M1294,137.66 C1305.2,139.68 1316.33,142.06 1327.42,144.62 C1327.64,172.57 1327.47,200.53 1327.51,228.49 C1338.5,228.47 1349.5,228.47 1360.49,228.49 C1360.45,203.68 1360.52,178.87 1360.46,154.06 C1371.81,157.59 1382.9,161.92 1393.76,166.77 C1393.71,203.2 1393.74,239.63 1393.74,276.07 C1393.63,283.42 1388.46,289.74 1382.38,293.36 C1376.87,296.62 1370.5,298.91 1364.02,298.54 C1343.1,298.51 1322.19,298.51 1301.27,298.54 C1301.25,290.78 1301.28,283.02 1301.25,275.26 C1320.99,275.28 1340.73,275.26 1360.48,275.27 C1360.53,267.63 1360.36,260 1360.58,252.38 C1348.42,252.12 1336.25,252.39 1324.09,252.25 C1313.9,251.58 1303.15,247.45 1297.22,238.75 C1294.42,234.75 1293.84,229.77 1293.99,225.03 C1294.02,195.9 1293.99,166.78 1294,137.66 L1294,137.66 Z" id="Shape" fill="#201E1E" sketch:type="MSShapeGroup"></path>
            <path d="M573.43,141.37 C584.34,141.13 595.26,141.4 606.18,141.23 C606.38,170.3 606.2,199.38 606.27,228.46 C595.35,228.52 584.43,228.45 573.51,228.49 C573.48,199.45 573.63,170.41 573.43,141.37 L573.43,141.37 Z" id="Shape" fill="#FDFDFC" sketch:type="MSShapeGroup"></path>
            <path d="M871.48,153.53 C882.52,151.27 893.58,149.11 904.66,147.08 C904.86,182.12 904.62,217.15 904.79,252.19 C882.18,252.4 859.57,252.2 836.96,252.29 C825.11,252.1 811.76,246.98 806.54,235.6 C804.91,231.96 804.96,227.87 804.99,223.96 C805.01,205.66 805,187.36 805,169.05 C816.1,166.16 827.25,163.45 838.4,160.74 C838.66,183.32 838.46,205.91 838.5,228.49 C849.5,228.47 860.5,228.47 871.49,228.49 C871.46,203.51 871.49,178.52 871.48,153.53 L871.48,153.53 Z" id="Shape" fill="#201E1E" sketch:type="MSShapeGroup"></path>
            <path d="M739.18,188.39 C750.15,184.8 761.16,181.23 772.32,178.27 C772.21,202.94 772.31,227.6 772.27,252.27 C761.09,252.28 749.91,252.28 738.73,252.27 C738.76,231.15 738.64,210.02 738.78,188.9 L739.18,188.39 L739.18,188.39 Z" id="Shape" fill="#201E1E" sketch:type="MSShapeGroup"></path>
            <path d="M672.51,212.6 C683.62,208.22 694.71,203.74 706,199.82 L706,252.28 C694.86,252.31 683.71,252.21 672.57,252.32 C672.37,239.08 672.51,225.84 672.51,212.6 L672.51,212.6 Z" id="Shape" fill="#201E1E" sketch:type="MSShapeGroup"></path>
            <path d="M590,252.2 C606,242.71 622.78,234.48 639.75,226.84 C639.73,235.31 639.71,243.77 639.76,252.24 C623.17,252.28 606.58,252.35 590,252.2 L590,252.2 Z" id="Shape" fill="#201E1E" sketch:type="MSShapeGroup"></path>
        </g>
    </g>
</svg>