<svg viewBox="0.0 0.0 723.0 721.0" xmlns="http://www.w3.org/2000/svg" fill="none"><clipPath id="a"><path d="M0 0h723v721H0V0z"/></clipPath><g clip-path="url(#a)"><path d="M0 0h723.223v721.073H0z" fill="none"/><path fill="#345d35" d="M234.06 196.67c0-107.006 88.195-193.75 196.99-193.75 52.247 0 102.352 20.413 139.296 56.748 36.943 36.335 57.697 85.615 57.697 137 0 107.005-88.196 193.75-196.992 193.75-108.795 0-196.99-86.745-196.99-193.75zM95.18 468.855c0-49.966 41.182-90.472 91.984-90.472 24.396 0 47.792 9.532 65.043 26.5 17.25 16.965 26.94 39.977 26.94 63.972 0 49.967-41.182 90.473-91.983 90.473-50.802 0-91.984-40.506-91.984-90.473zM368.705 670.546c0-26.292 21.673-47.606 48.41-47.606 12.838 0 25.15 5.016 34.23 13.944 9.078 8.928 14.18 21.036 14.18 33.662 0 26.293-21.675 47.607-48.41 47.607-26.737 0-48.41-21.314-48.41-47.607z"/></g></svg>