<svg viewBox="0.0 0.0 441.0 441.0" xmlns="http://www.w3.org/2000/svg" fill="none"><clipPath id="a"><path d="M0 0h441v441H0V0z"/></clipPath><g clip-path="url(#a)"><path d="M0 0h441.5v441.5H0z" fill="none"/><path d="M0 0h441.543v441.543H0z"/><path fill="#fff" d="M0 379.772h441.543v61.763H0z"/><path fill="#d9d9d9" d="M0 369.772h441.543v10.015H0z"/><path fill="#c01d11" d="M0 325.772h441.543v44H0z"/><path d="M4.606 4.606h428.347v311.15H4.606z" fill="none"/><path fill="#fff" d="M342.86 92.825v4.828q-6.906 0-11.22 2.485-4.296 2.468-8.202 9.25-2.61 4.562-8.22 21.765l-49.28 142.5h-5.22l-40.28-113.03-40.016 113.03h-4.703l-52.532-146.797q-5.875-16.437-7.437-19.437-2.61-4.954-7.11-7.36-4.483-2.407-12.186-2.407v-4.828h65.453v4.828h-3.125q-6.922 0-10.578 3.125-3.64 3.125-3.64 7.563 0 4.563 5.733 20.985l34.813 99.22 29.328-84.36-5.203-14.86-4.172-11.86q-2.75-6.515-6.14-11.468-1.688-2.484-4.172-4.172-3.25-2.36-6.515-3.39-2.47-.782-7.813-.782v-4.828h68.83v4.828h-4.69q-7.296 0-10.686 3.125-3.39 3.125-3.39 8.47 0 6.655 5.858 23.202l33.907 96.094 33.626-97.39q5.734-16.173 5.734-22.423 0-3-1.89-5.608-1.89-2.61-4.75-3.656-4.954-1.813-12.907-1.813v-4.828h52.797z"/></g></svg>