<?xml version="1.0" standalone="yes"?>

<svg version="1.1" viewBox="0.0 0.0 441.0 441.0" fill="none" stroke="none" stroke-linecap="square" stroke-miterlimit="10" xmlns="http://www.w3.org/2000/svg" xmlns:xlink="http://www.w3.org/1999/xlink"><clipPath id="p.0"><path d="m0 0l441.0 0l0 441.0l-441.0 0l0 -441.0z" clip-rule="nonzero"></path></clipPath><g clip-path="url(#p.0)"><path fill="#000000" fill-opacity="0.0" d="m0 0l441.5013 0l0 441.5013l-441.5013 0z" fill-rule="nonzero"></path><path fill="#000000" d="m0 0l441.54333 0l0 441.54333l-441.54333 0z" fill-rule="nonzero"></path><path fill="#ffffff" d="m0 379.77167l441.54333 0l0 61.763763l-441.54333 0z" fill-rule="nonzero"></path><path fill="#d9d9d9" d="m0 369.77167l441.54333 0l0 10.015747l-441.54333 0z" fill-rule="nonzero"></path><path fill="#c01d11" d="m0 325.77167l441.54333 0l0 43.99997l-441.54333 0z" fill-rule="nonzero"></path><path fill="#000000" fill-opacity="0.0" d="m4.6062994 4.6062994l428.34647 0l0 311.14963l-428.34647 0z" fill-rule="nonzero"></path><path fill="#ffffff" d="m342.85995 92.82505l0 4.828125q-6.90625 0 -11.21875 2.484375q-4.296875 2.46875 -8.203125 9.25q-2.609375 4.5625 -8.21875 21.765617l-49.28125 142.5l-5.21875 0l-40.28125 -113.03125l-40.015625 113.03125l-4.703125 0l-52.531235 -146.79688q-5.875 -16.4375 -7.4375 -19.4375q-2.609375 -4.953125 -7.109375 -7.359375q-4.484375 -2.40625 -12.1875 -2.40625l0 -4.828125l65.45311 0l0 4.828125l-3.125 0q-6.921875 0 -10.578125 3.125q-3.640625 3.125 -3.640625 7.5625q0 4.5625 5.734375 20.984367l34.8125 99.21875l29.328125 -84.359375l-5.203125 -14.859375l-4.171875 -11.859367q-2.75 -6.515625 -6.140625 -11.46875q-1.6875 -2.484375 -4.171875 -4.171875q-3.25 -2.359375 -6.515625 -3.390625q-2.46875 -0.78125 -7.8125 -0.78125l0 -4.828125l68.828125 0l0 4.828125l-4.6875 0q-7.296875 0 -10.6875 3.125q-3.390625 3.125 -3.390625 8.46875q0 6.65625 5.859375 23.203117l33.90625 96.09375l33.625 -97.390625q5.734375 -16.171867 5.734375 -22.421867q0 -3.0 -1.890625 -5.609375q-1.890625 -2.609375 -4.75 -3.65625q-4.953125 -1.8125 -12.90625 -1.8125l0 -4.828125l52.796875 0z" fill-rule="nonzero"></path></g></svg>

