<?xml version="1.0" standalone="yes"?>

<svg version="1.1" viewBox="0.0 0.0 723.0 721.0" fill="none" stroke="none" stroke-linecap="square" stroke-miterlimit="10" xmlns="http://www.w3.org/2000/svg" xmlns:xlink="http://www.w3.org/1999/xlink"><clipPath id="p.0"><path d="m0 0l723.0 0l0 721.0l-723.0 0l0 -721.0z" clip-rule="nonzero"></path></clipPath><g clip-path="url(#p.0)"><path fill="#000000" fill-opacity="0.0" d="m0 0l723.2231 0l0 721.0735l-723.2231 0z" fill-rule="nonzero"></path><path fill="#345d35" d="m234.05905 196.66853l0 0c0 -107.00409 88.19638 -193.74803 196.99213 -193.74803l0 0c52.245575 0 102.35129 20.412682 139.29446 56.747482c36.943176 36.334805 57.697693 85.61537 57.697693 137.00055l0 0c0 107.004074 -88.19641 193.74803 -196.99216 193.74803l0 0c-108.795746 0 -196.99213 -86.74396 -196.99213 -193.74803z" fill-rule="nonzero"></path><path fill="#345d35" d="m95.17962 468.8552l0 0c0 -49.966553 41.182762 -90.47244 91.98426 -90.47244l0 0c24.395737 0 47.792297 9.531891 65.04268 26.498749c17.250412 16.966888 26.941574 39.97888 26.941574 63.973694l0 0c0 49.966522 -41.182755 90.47244 -91.98425 90.47244l0 0c-50.8015 0 -91.98426 -40.50592 -91.98426 -90.47244z" fill-rule="nonzero"></path><path fill="#345d35" d="m368.7047 670.5464l0 0c0 -26.292236 21.673676 -47.606262 48.409454 -47.606262l0 0c12.838989 0 25.15213 5.015625 34.23065 13.9435425c9.078552 8.9279175 14.1788025 21.036743 14.1788025 33.66272l0 0c0 26.292236 -21.673645 47.606323 -48.409454 47.606323l0 0c-26.735779 0 -48.409454 -21.314087 -48.409454 -47.606323z" fill-rule="nonzero"></path></g></svg>

